<?xml version="1.0" standalone="no"?>
<!DOCTYPE svg PUBLIC "-//W3C//DTD SVG 1.1//EN" "http://www.w3.org/Graphics/SVG/1.1/DTD/svg11.dtd" >
<svg xmlns="http://www.w3.org/2000/svg">
<metadata></metadata>
<defs>
<font id="antykwa_torunskamedium" horiz-adv-x="1064" >
<font-face units-per-em="2048" ascent="1536" descent="-512" />
<missing-glyph horiz-adv-x="681" />
<glyph unicode="&#xfb01;" horiz-adv-x="1284" d="M63 852l25 135q70 -24 145 -24l-4 86q-3 108 42.5 201.5t129.5 150.5t187 57q83 0 143 -59t60 -142q-76 0 -129 -43q0 158 -74 158q-49 0 -74 -46t-27 -112l-8 -251h289q40 0 119 -9.5t119 -9.5q82 0 159 19q-21 -61 -24 -129l-35 -680q-2 -31 7.5 -52.5t31.5 -21.5 q41 0 76 24l-17 -104q-18 -6 -41 -6q-27 0 -79 12t-78 12q-27 0 -79.5 -12t-78.5 -12q-23 0 -41 6l-16 104q33 -24 75 -24q22 0 31.5 21.5t7.5 52.5l-35 680q-2 17 -13 30t-26 13h-354l-18 -723q0 -74 39 -74q42 0 75 24l-16 -104q-18 -6 -41 -6q-26 0 -78.5 12t-79.5 12 q-26 0 -78 -12t-79 -12q-23 0 -41 6l-17 104q35 -24 76 -24q22 0 31.5 22t7.5 52l-22 723q-86 0 -173 -25zM860 1245q0 61 43 104.5t105 43.5q60 0 103.5 -43.5t43.5 -104.5t-43.5 -104t-103.5 -43q-62 0 -105 43t-43 104z" />
<glyph unicode="&#xfb02;" horiz-adv-x="1267" d="M63 852l25 135q70 -24 145 -24l-4 86q-4 172 128 290.5t317 118.5q53 0 157.5 -21.5t157.5 -21.5q83 0 160 19q-25 -64 -25 -129l-34 -1151q-3 -30 6 -52t30 -22q45 0 78 24l-16 -104q-21 -6 -43 -6q-27 0 -78 12t-78 12q-28 0 -79.5 -12t-78.5 -12q-22 0 -40 6l-17 104 q32 -24 76 -24q39 0 39 74l-35 1093q-1 58 -54.5 91.5t-125.5 33.5q-75 0 -130.5 -44.5t-56.5 -113.5l-8 -251q109 0 213 24l-24 -135q-97 25 -191 25l-18 -723q0 -74 39 -74q42 0 75 24l-16 -104q-18 -6 -41 -6q-26 0 -78.5 12t-79.5 12q-26 0 -78 -12t-79 -12q-23 0 -41 6 l-17 104q35 -24 76 -24q22 0 31.5 22t7.5 52l-22 723q-86 0 -173 -25z" />
<glyph unicode="&#xfb03;" horiz-adv-x="1902" d="M63 852l25 135q70 -24 145 -24l-4 86q-3 108 42.5 201.5t129.5 150.5t187 57q83 0 143 -59t60 -142q-76 0 -129 -43q0 158 -74 158q-49 0 -74 -46t-27 -112l-8 -251h373l-4 86q-3 108 42 201.5t129 150.5t187 57q83 0 143 -59t60 -142q-74 0 -129 -43q0 158 -74 158 q-48 0 -73 -46.5t-27 -111.5l-8 -251h288q40 0 119 -9.5t119 -9.5q83 0 160 19q-22 -59 -25 -129l-35 -680q-2 -31 8 -52.5t31 -21.5q43 0 76 24l-16 -104q-19 -6 -41 -6q-26 0 -79 12t-79 12t-78.5 -12t-79.5 -12q-22 0 -41 6l-16 104q35 -24 76 -24q22 0 31.5 21.5 t7.5 52.5l-35 680q-2 17 -13 30t-26 13h-354l-19 -723q0 -74 39 -74q42 0 76 24l-16 -104q-20 -6 -41 -6q-27 0 -79.5 12t-78.5 12q-27 0 -79 -12t-79 -12q-21 0 -41 6l-16 104q33 -24 76 -24q21 0 31 22.5t8 51.5l-23 723h-377l-18 -723q0 -74 39 -74q42 0 75 24l-16 -104 q-18 -6 -41 -6q-26 0 -78.5 12t-79.5 12q-26 0 -78 -12t-79 -12q-23 0 -41 6l-17 104q35 -24 76 -24q22 0 31.5 22t7.5 52l-22 723q-86 0 -173 -25zM1479 1245q0 62 43 105t104 43q60 0 104 -43.5t44 -104.5t-44 -104t-104 -43q-62 0 -104.5 43t-42.5 104z" />
<glyph unicode="&#xfb04;" horiz-adv-x="1886" d="M63 852l25 135q70 -24 145 -24l-4 86q-3 108 42.5 201.5t129.5 150.5t187 57q83 0 143 -59t60 -142q-76 0 -129 -43q0 158 -74 158q-49 0 -74 -46t-27 -112l-8 -251h373l-4 86q-4 172 128 290.5t316 118.5q54 0 158 -21.5t158 -21.5q82 0 159 19q-24 -62 -24 -129 l-35 -1151q-4 -74 37 -74q43 0 78 24l-17 -104q-21 -6 -43 -6q-27 0 -78 12t-77 12q-28 0 -80 -12t-78 -12q-23 0 -41 6l-16 104q30 -24 75 -24q39 0 39 74l-34 1093q-2 58 -55.5 91.5t-125.5 33.5q-74 0 -129.5 -44.5t-56.5 -113.5l-8 -251q108 0 213 24l-25 -135 q-95 25 -190 25l-19 -723q0 -74 39 -74q42 0 76 24l-16 -104q-20 -6 -41 -6q-27 0 -79.5 12t-78.5 12q-27 0 -79 -12t-79 -12q-21 0 -41 6l-16 104q33 -24 76 -24q21 0 31 22.5t8 51.5l-23 723h-377l-18 -723q0 -74 39 -74q42 0 75 24l-16 -104q-18 -6 -41 -6 q-26 0 -78.5 12t-79.5 12q-26 0 -78 -12t-79 -12q-23 0 -41 6l-17 104q35 -24 76 -24q22 0 31.5 22t7.5 52l-22 723q-86 0 -173 -25z" />
<glyph horiz-adv-x="0" />
<glyph unicode="&#xd;" horiz-adv-x="682" />
<glyph unicode=" "  horiz-adv-x="681" />
<glyph unicode="&#x09;" horiz-adv-x="681" />
<glyph unicode="&#xa0;" horiz-adv-x="681" />
<glyph unicode="!" horiz-adv-x="698" d="M203 147q0 62 43 105t104 43q60 0 104 -43.5t44 -104.5q0 -60 -44 -103.5t-104 -43.5q-61 0 -104 43t-43 104zM215 1434q59 0 177.5 -21.5t178.5 -21.5q-75 -103 -86 -236l-55 -731h-162z" />
<glyph unicode="&#x22;" horiz-adv-x="714" d="M96 938q13 73 13 155.5t-6.5 184t-6.5 156.5q115 -23 230 0q0 -59 -22.5 -127.5t-49.5 -121t-49.5 -120.5t-22.5 -127h-86zM389 938q13 73 13 155.5t-6.5 184t-6.5 156.5q115 -23 229 0q0 -59 -22.5 -127.5t-49 -121t-49 -120.5t-22.5 -127h-86z" />
<glyph unicode="#" horiz-adv-x="1607" d="M63 403q14 76 0 148l377 -19l70 201l57 170l-504 -20q14 72 0 147l537 -22l125 426q78 -13 158 0l-170 -428h92l289 4l125 424q79 -13 157 0l-168 -422l336 18q-12 -75 0 -147l-377 18l-69 -201l-58 -170l504 21q-12 -72 0 -148l-536 23l-125 -426q-80 12 -158 0l170 428 h-90l-291 -4l-125 -424q-78 12 -158 0l168 422zM547 530l258 -4l127 2l72 205l57 170l-256 4l-129 -2l-72 -205z" />
<glyph unicode="$" horiz-adv-x="1255" d="M63 176q111 105 173 230q16 -113 126 -216.5t230 -123.5v497q-92 11 -171 36t-144.5 65t-103.5 101.5t-38 137.5q0 110 63.5 199.5t167 140.5t226.5 60v131h86v-131q230 -11 418 -142q-79 -74 -129 -178q-34 95 -112 158t-177 76v-404q102 -13 193 -46.5t163.5 -86 t115 -129t42.5 -166.5q0 -118 -73.5 -210.5t-188.5 -141t-252 -56.5v-182h-86v182q-300 14 -529 199zM326 989q0 -42 21.5 -73t61.5 -49.5t83.5 -29t99.5 -16.5v396q-112 -12 -189 -73t-77 -155zM678 63q87 6 158 31.5t118 78t47 124.5q0 73 -47 128.5t-117 86t-159 43.5 v-492z" />
<glyph unicode="%" horiz-adv-x="1730" d="M63 1098q0 145 100.5 248.5t244.5 103.5q107 0 199.5 -44.5t149 -126t56.5 -181.5q0 -147 -101 -251t-245 -104q-165 0 -284.5 101.5t-119.5 253.5zM223 1157q0 -130 82 -242t193 -112q73 0 113 69t40 164q0 83 -36 165t-100.5 136t-137.5 54t-113.5 -69.5t-40.5 -164.5z M283 0l1056 1434h107l-1057 -1434h-106zM915 336q0 146 101.5 250t245.5 104q165 0 284 -101t119 -253q0 -145 -100.5 -248.5t-243.5 -103.5q-107 0 -200 44.5t-149.5 126t-56.5 181.5zM1077 397q0 -130 82 -242t193 -112q72 0 112.5 69.5t40.5 163.5q0 83 -36 165 t-100.5 136t-137.5 54q-74 0 -114 -69t-40 -165z" />
<glyph unicode="&#x26;" horiz-adv-x="1300" d="M96 338q0 194 273 358l51 29q-31 166 4.5 318.5t134 250t238.5 97.5q104 0 178 -75t74 -179q0 -99 -54.5 -185.5t-144.5 -142.5q-49 -30 -146.5 -81t-140.5 -77q-20 -12 -31 -20q48 -139 132.5 -252.5t197.5 -181.5q107 105 107 252q0 25 -27 83q120 42 223 127 q23 -49 23 -145q0 -114 -51 -211t-142 -170q93 -29 187 -29q0 -65 22 -129q-173 0 -330 84q-145 -71 -321 -71q-120 0 -223 41.5t-168.5 122.5t-65.5 186zM383 338q0 -108 44 -186t126 -78q115 0 217 55q-211 165 -305 436q-82 -97 -82 -227zM502 764q61 27 146 67t143 76 q172 106 172 230q0 69 -48.5 118.5t-117.5 49.5q-111 0 -187 -79t-103 -201.5t-5 -260.5z" />
<glyph unicode="'" horiz-adv-x="421" d="M96 938q13 73 13 155.5t-6.5 184t-6.5 156.5q115 -23 230 0q0 -59 -22.5 -127.5t-49.5 -121t-49.5 -120.5t-22.5 -127h-86z" />
<glyph unicode="(" horiz-adv-x="698" d="M193 584q0 533 264 993q77 -110 180 -180q-159 -162 -244.5 -373.5t-85.5 -439.5q0 -256 71.5 -500t211.5 -457l-45 -37q-172 210 -262 465.5t-90 528.5z" />
<glyph unicode=")" horiz-adv-x="698" d="M63 -270q160 163 246 374t86 439q0 255 -72.5 498.5t-211.5 457.5l45 37q172 -211 263 -466.5t91 -526.5q0 -527 -264 -994q-82 112 -183 181z" />
<glyph unicode="*" horiz-adv-x="710" d="M78 1053q69 25 143 67l96 6l-53 -82q-61 -35 -129 -90zM78 1241l57 98q70 -54 129 -90l53 -80l-96 5q-74 42 -143 67zM299 860q14 89 14 158l43 86l43 -86q0 -88 15 -158h-115zM299 1434h115q-15 -71 -15 -158l-43 -86l-43 86q0 67 -14 158zM393 1126l96 -6 q76 -43 144 -67l-58 -99q-66 54 -129 90zM393 1169l53 80q62 36 129 90l58 -98q-68 -24 -144 -67z" />
<glyph unicode="+" horiz-adv-x="1593" d="M236 438q12 74 0 148q249 -22 512 -25q-5 265 -25 512q73 -12 147 0q-21 -255 -24 -512q264 3 512 25q-12 -74 0 -148q-248 22 -512 25q3 -257 24 -512q-74 12 -147 0q20 247 25 512q-263 -3 -512 -25z" />
<glyph unicode="," horiz-adv-x="458" d="M14 -162q45 38 73.5 89.5t40 119t14.5 118t3 130.5q109 -18 217 0q0 -158 -67.5 -292t-194.5 -208z" />
<glyph unicode="-" horiz-adv-x="645" d="M33 414l49 153h434q69 0 129 25l-49 -154h-434q-68 0 -129 -24z" />
<glyph unicode="." horiz-adv-x="487" d="M96 147q0 61 43 104.5t105 43.5q61 0 104 -43t43 -105q0 -61 -43 -104t-104 -43t-104.5 43t-43.5 104z" />
<glyph unicode="/" horiz-adv-x="739" d="M49 -137q151 407 279 842q117 401 207 815q77 -14 155 0q-148 -401 -278 -840q-122 -422 -207 -817q-78 15 -156 0z" />
<glyph unicode="0" d="M37 717q0 142 32 272.5t92 236t157 169t217 63.5q119 0 215.5 -63.5t156 -169t91.5 -236t32 -272.5t-32 -273t-91.5 -236.5t-156 -169t-215.5 -63.5q-120 0 -217 63.5t-157 169t-92 236.5t-32 273zM266 717q0 -65 0.5 -104t3 -101t7.5 -101.5t14 -92t22.5 -85.5t34 -69 t46.5 -56t62 -33.5t79 -13.5t78 13.5t61 33.5t46.5 56t33.5 69t22.5 85.5t14 92t7 101.5t3 101t0.5 104t-0.5 104t-3 101t-7 101t-14 91.5t-22.5 85.5t-33.5 69t-46.5 56t-61 33.5t-78 13.5t-79 -13.5t-62 -33.5t-46.5 -56t-34 -69t-22.5 -85.5t-14 -91.5t-7.5 -101t-3 -101 t-0.5 -104z" />
<glyph unicode="1" d="M133 907q121 99 200 235t107 292q114 -22 230 0l-35 -1280q-1 -32 23 -53t59 -21q84 0 168 24l-17 -104q-56 -6 -110 -6q-37 0 -112 12t-111 12q-38 0 -113.5 -12t-112.5 -12q-55 0 -108 6l-17 104q81 -24 166 -24q34 0 59 21t25 53l-31 882q-114 -111 -215 -194z" />
<glyph unicode="2" d="M37 109l645 688q76 81 76 252q0 131 -60 227t-163 96q-113 0 -183.5 -96t-70.5 -227q0 -81 49 -136q-100 -73 -164 -172q-86 94 -86 222q0 132 58.5 245.5t164 181.5t232.5 68q126 0 230.5 -68t163 -181.5t58.5 -245.5q0 -166 -174 -318l-616 -543q68 9 157 9 q57 0 168.5 -10.5t167.5 -10.5q103 0 178.5 55t75.5 142h86q-43 -130 -43 -275q-126 -24 -254 -24q-70 0 -210.5 18.5t-211.5 18.5q-112 0 -231 -25z" />
<glyph unicode="3" d="M49 287q129 47 223 131q0 -93 34.5 -174t100.5 -132t148 -51q64 0 113 36t77 96.5t42 132t14 151.5q0 138 -79 239t-200 101q-108 0 -198 -43l-66 57l430 480q-60 0 -178 10t-178 10q-67 0 -111.5 -58.5t-62.5 -144.5l-84 19l61 287q95 0 280.5 -18.5t278.5 -18.5 q120 0 230 37l43 -129l-445 -402q133 0 249 -53t187.5 -152t71.5 -221q0 -135 -62 -250t-172 -183.5t-241 -68.5q-160 0 -297 84.5t-209 227.5z" />
<glyph unicode="4" d="M37 444q194 202 310 457t140 533q140 -26 279 0q-166 -562 -565 -990q82 -14 195 -4t196 23l-6 196q116 -18 231 0l-6 -186q125 -7 219 -29q-28 -64 -31 -129q-89 36 -190 54l-6 -215q-2 -29 13 -51.5t40 -22.5q58 0 111 24l-17 -104q-33 -6 -65 -6t-92 12t-91 12 q-32 0 -91.5 -12t-90.5 -12q-35 0 -65 6l-17 104q50 -24 109 -24q25 0 40 22t15 52l-8 227q-51 -2 -128.5 -11t-129 -15t-128.5 -7.5t-128 10.5z" />
<glyph unicode="5" d="M37 287q106 34 203 108q0 -125 97 -229.5t218 -104.5q83 0 140.5 60.5t81.5 148.5t24 193q0 104 -33 194t-100.5 148.5t-155.5 58.5q-121 0 -209 -49t-88 -141q-77 34 -154 43q55 354 25 717q121 -25 250 -25q70 0 206.5 18.5t205.5 18.5q117 0 221 -49q-25 -85 -25 -174 q-144 75 -303 75q-149 0 -305 25l-49 -467q114 94 268 94q130 0 240 -66t172.5 -178t62.5 -243t-62.5 -243.5t-172.5 -178.5t-240 -66q-163 0 -302.5 83.5t-215.5 228.5z" />
<glyph unicode="6" d="M37 641q0 142 43 287t117 263t183.5 192.5t231.5 74.5q113 0 207 -74.5t162 -193.5q-94 -30 -164 -86q-10 111 -63.5 189.5t-141.5 78.5q-86 0 -153.5 -46t-108.5 -124t-62.5 -172.5t-21.5 -198.5q144 107 324 107q92 0 174 -39t140 -104.5t92 -153.5t34 -184 q0 -128 -57 -238.5t-159 -177t-224 -66.5q-96 0 -183 35.5t-153.5 99t-116 146.5t-75 182t-25.5 203zM266 500q0 -85 22.5 -163.5t63 -140t102.5 -98.5t136 -37q54 0 96 30t66.5 81.5t36.5 112.5t12 129q0 85 -14 160t-43 139t-79.5 101.5t-117.5 37.5q-123 0 -202 -105 t-79 -247z" />
<glyph unicode="7" d="M70 1075l24 334q112 25 223 25q76 0 223.5 -37t223.5 -37q121 0 223 49l43 -104q-136 -144 -256 -375t-191 -481.5t-71 -448.5q-102 18 -201 0q0 227 134.5 656.5t263.5 617.5q-59 0 -175 12t-174 12q-108 0 -156 -54t-48 -169h-86z" />
<glyph unicode="8" d="M-6 383q0 75 30.5 139t87.5 114.5t121 88.5t148 74q-277 157 -277 358q0 93 63 163.5t159.5 104t208.5 33.5q114 0 212.5 -32.5t164 -103t65.5 -165.5q0 -58 -22.5 -108.5t-65.5 -90t-91 -69.5t-112 -60q79 -42 139.5 -85t114.5 -97.5t83.5 -121.5t29.5 -142 q0 -121 -74 -215.5t-191.5 -143.5t-252.5 -49q-142 0 -264 48t-199.5 143t-77.5 217zM166 383q0 -137 109 -229.5t260 -92.5q108 0 175.5 96t67.5 226q0 205 -299 362q-139 -61 -226 -151.5t-87 -210.5zM334 1157q0 -38 15 -73.5t37 -61.5t58 -53t67 -45t75 -41 q98 47 158.5 116t60.5 158q0 95 -80.5 155t-189.5 60q-85 0 -143 -63t-58 -152z" />
<glyph unicode="9" d="M37 977q0 96 34 184t92 153.5t140 104.5t174 39q120 0 224.5 -55t175.5 -147t112 -212.5t41 -250.5q0 -113 -27 -229.5t-78.5 -221.5t-120.5 -187.5t-160 -131t-189 -48.5q-114 0 -207.5 74.5t-161.5 194.5q91 28 164 86q10 -111 63.5 -190t141.5 -79q86 0 153.5 46.5 t108.5 124t62.5 172.5t21.5 198q-142 -106 -324 -106q-92 0 -174 39t-140 104.5t-92 153.5t-34 184zM266 1020q0 -85 14 -160t43 -139t79.5 -101.5t117.5 -37.5q123 0 202 105t79 247q0 113 -37.5 212t-113 162.5t-173.5 63.5q-72 0 -121 -53t-69.5 -130t-20.5 -169z" />
<glyph unicode=":" horiz-adv-x="487" d="M96 147q0 61 43 104.5t105 43.5q61 0 104 -43t43 -105q0 -61 -43 -104t-104 -43t-104.5 43t-43.5 104zM96 815q0 61 43 104.5t105 43.5q61 0 104 -43t43 -105q0 -61 -42.5 -104t-104.5 -43t-105 43t-43 104z" />
<glyph unicode=";" horiz-adv-x="536" d="M53 -162q45 38 73.5 89.5t40 119t14.5 118t3 130.5q109 -18 217 0q0 -158 -67.5 -292t-194.5 -208zM145 815q0 61 43.5 104.5t104.5 43.5t104 -43t43 -105q0 -61 -43 -104t-104 -43q-62 0 -105 43t-43 104z" />
<glyph unicode="&#x3c;" horiz-adv-x="1593" d="M213 467l2 90q595 240 1143 582q-15 -83 0 -164l-1010 -463l1010 -465q-15 -81 0 -164q-558 349 -1145 584z" />
<glyph unicode="=" horiz-adv-x="1593" d="M236 254q12 74 0 147q279 -24 561 -24q281 0 561 24q-12 -73 0 -147q-292 25 -561 25q-270 0 -561 -25zM236 623q12 73 0 147q291 -25 561 -25q269 0 561 25q-12 -74 0 -147q-280 24 -561 24q-282 0 -561 -24z" />
<glyph unicode="&#x3e;" horiz-adv-x="1593" d="M213 47l1010 463l-1010 465q15 81 0 164q553 -345 1145 -584v-90q-601 -242 -1145 -582q15 83 0 164z" />
<glyph unicode="?" horiz-adv-x="921" d="M74.5 1107q1.5 71 33 134.5t79 111.5t115.5 76.5t144 28.5q187 0 299.5 -96t112.5 -268q0 -56 -33 -119t-70.5 -107t-103.5 -112q-55 -60 -78 -86.5t-60 -76.5t-52 -91.5t-15 -83.5h-86q0 58 22 122.5t45 105.5t67 110q45 71 67.5 110.5t45 104.5t22.5 123 q0 143 -37.5 210.5t-145.5 67.5q-89 0 -132 -74.5t-28.5 -190t81.5 -230.5q-122 65 -271 86q-23 73 -21.5 144zM256 147q0 61 43 104.5t104 43.5q60 0 104 -43.5t44 -104.5q0 -60 -44 -103.5t-104 -43.5q-61 0 -104 43t-43 104z" />
<glyph unicode="@" horiz-adv-x="1921" d="M63 512q0 186 70.5 356t190.5 294.5t286.5 198t350.5 73.5t350.5 -73.5t286 -198t190 -294.5t70.5 -356q0 -142 -61 -264.5t-171 -196.5t-244 -74q-61 0 -108 43.5t-60 106.5q-39 -68 -111.5 -109t-158.5 -41q-211 0 -336 123t-125 332q0 210 124.5 333.5t336.5 123.5 q134 0 211 -121l-10 109q137 -38 278 0l-30 -725q-2 -40 16.5 -68.5t50.5 -28.5q98 0 171 67.5t107 169.5t34 220q0 169 -63.5 323t-172 266.5t-259 179.5t-316.5 67q-161 0 -305.5 -67.5t-247 -181t-162.5 -267t-60 -320.5t60 -320.5t162.5 -267t247 -181t305.5 -67.5 q165 0 313.5 65t261.5 181l61 -59q-123 -129 -288 -201t-348 -72q-184 0 -350.5 73.5t-286.5 198t-190.5 294.5t-70.5 356zM690 471q0 -122 28.5 -212.5t95 -147t167.5 -56.5q80 0 143.5 44.5t81.5 113.5l-39 401q-62 197 -223 197q-77 0 -136 -49t-88.5 -125.5 t-29.5 -165.5z" />
<glyph unicode="A" horiz-adv-x="1492" d="M33 104q36 -24 82 -24q15 0 27.5 13t18 25t15.5 36l375 979q21 50 21 96q0 27 -8 54q-20 71 -81 71q-58 0 -112 -19l16 99q43 6 84 6q42 0 125 -12.5t125 -12.5q106 0 205 19q-7 -43 -6 -86q0 -94 30 -193l330 -1001q24 -74 74 -74q56 0 108 24l-16 -104q-34 -6 -66 -6 q-30 0 -90.5 12t-91.5 12q-32 0 -93 -12t-91 -12q-32 0 -64 6l-16 104q50 -24 106 -24q23 0 33.5 23.5t1.5 50.5l-94 241h-401q-123 0 -232 -67l-61 -174q-11 -26 -5.5 -50t25.5 -24q46 0 82 24l-16 -104q-23 -6 -45 -6q-20 0 -58 12t-59 12t-59 -12t-58 -12q-24 0 -45 6z M403 481h545l-282 738z" />
<glyph unicode="B" horiz-adv-x="1488" d="M96 1329l17 105q27 6 59 6q36 0 106.5 -12.5t106.5 -12.5q67 0 198 21.5t197 21.5q126 0 234.5 -40t179 -121.5t70.5 -188.5q0 -123 -76 -220t-195 -128q166 -15 283 -123.5t117 -261.5q0 -115 -69.5 -208t-181 -142.5t-239.5 -49.5q-87 0 -259 21.5t-259 21.5 q-31 0 -91 -12t-91 -12q-35 0 -66 6l-16 104q49 -24 108 -24q24 0 40 22.5t14 51.5l-37 1126q-2 31 -14.5 52.5t-34.5 21.5q-55 0 -101 -25zM487 154q0 -22 14 -39t46 -26.5t61.5 -15.5t81.5 -8.5t82.5 -3t87.5 -0.5q116 0 195.5 93.5t79.5 220.5q0 164 -109 254t-289 90 q-125 0 -231 -21zM508 805q135 -21 272 -21q120 0 186 82.5t66 216.5q0 121 -86.5 205t-208.5 84q-45 0 -75.5 -2.5t-65.5 -11t-53 -28t-19 -50.5z" />
<glyph unicode="C" horiz-adv-x="1609" d="M96 729q0 151 61.5 286.5t165 232t244.5 153.5t295 57q182 0 346 -76t281 -215q-162 -110 -272 -266q1 17 1 34q0 105 -49 199q-57 108 -162 173t-231 65q-95 0 -176 -46.5t-134 -124.5t-82.5 -178t-29.5 -208q0 -146 43 -282t118.5 -241t188.5 -168t244 -63 q82 0 153.5 32.5t117 79t80.5 103t51 100.5t20 75q61 -81 143 -129q-110 -163 -283 -255t-368 -92q-208 0 -384 100.5t-279 274.5t-103 379z" />
<glyph unicode="D" horiz-adv-x="1622" d="M96 1329l17 105q27 6 59 6q36 0 106.5 -12.5t106.5 -12.5q66 0 194.5 21.5t192.5 21.5q155 0 294.5 -61.5t240.5 -165t160 -246.5t59 -299q0 -147 -60.5 -279.5t-162.5 -227t-240.5 -149.5t-290.5 -55q-64 0 -192.5 21.5t-194.5 21.5q-31 0 -91 -12t-91 -12q-35 0 -66 6 l-16 104q49 -24 108 -24q24 0 40 22.5t14 51.5l-37 1126q-2 31 -14.5 52.5t-34.5 21.5q-55 0 -101 -25zM487 154q0 -22 10.5 -39t34.5 -26.5t46.5 -15.5t62.5 -8.5t63.5 -3t67.5 -0.5q110 0 204 52t157.5 139t99 200t35.5 234q0 129 -49 256t-125.5 220.5t-174 151.5 t-190.5 58q-41 0 -72.5 -3t-63.5 -12t-50 -28.5t-19 -48.5z" />
<glyph unicode="E" horiz-adv-x="1392" d="M96 1329l17 105q27 6 59 6q36 0 106.5 -12.5t106.5 -12.5q99 0 297 21.5t299 21.5q115 0 227 -24q-12 -32 -12 -62q0 -125 37 -239q-76 -30 -143 -86q24 60 24 129q0 63 -43.5 108.5t-109 66.5t-142.5 21h-58.5t-56.5 -2t-56.5 -5.5t-47 -10t-41 -16t-25 -24.5t-10.5 -34 l-16 -492l307 13q88 3 166 37q-43 -86 -49 -185q-82 49 -178 49h-248l-19 -548q0 -17 7.5 -30.5t25 -23t35 -16.5t48.5 -11.5t53 -7t60 -3.5t59 -1h61q141 0 244.5 79.5t103.5 203.5q0 67 -13 129q74 -55 172 -86q-98 -173 -98 -362q-139 -50 -287 -50q-96 0 -286 21.5 t-287 21.5q-31 0 -91 -12t-91 -12q-35 0 -66 6l-16 104q49 -24 108 -24q24 0 40 22.5t14 51.5l-37 1126q-2 31 -14.5 52.5t-34.5 21.5q-55 0 -101 -25z" />
<glyph unicode="F" horiz-adv-x="1282" d="M96 1329l17 105q27 6 59 6q36 0 106.5 -12.5t106.5 -12.5q99 0 297 21.5t299 21.5q115 0 227 -24q-12 -32 -12 -62q0 -125 37 -239q-76 -30 -143 -86q24 60 24 129q0 63 -43.5 108.5t-109 66.5t-142.5 21h-58.5t-56.5 -2t-56.5 -5.5t-47 -10t-41 -16t-25 -24.5t-10.5 -34 l-16 -492l307 13q88 3 166 37q-43 -86 -49 -185q-82 49 -178 49h-248l-19 -548q-1 -31 25.5 -52.5t62.5 -21.5q96 0 179 37q-22 -54 -25 -117q-30 -12 -63 -12q-48 0 -141 15t-140 15q-31 0 -91 -12t-91 -12q-35 0 -66 6l-16 104q49 -24 108 -24q24 0 40 22.5t14 51.5 l-37 1126q-2 31 -14.5 52.5t-34.5 21.5q-55 0 -101 -25z" />
<glyph unicode="G" horiz-adv-x="1609" d="M96 729q0 151 61.5 286.5t165 232t244.5 153.5t295 57q182 0 346 -76t281 -215q-132 -92 -225 -206q-31 178 -169 294.5t-319 116.5q-95 0 -176 -46.5t-134 -124.5t-82.5 -178t-29.5 -208q0 -146 43 -282t118.5 -241t188.5 -168t244 -63q89 0 172 34.5t146 97.5v307 q0 43 -24.5 74.5t-61.5 31.5q-150 0 -271 -74q58 84 86 185q126 -25 258 -25q134 0 260 25q-43 -174 -43 -344q0 -111 25 -230q-62 0 -115.5 -17.5t-98.5 -42t-96.5 -49t-134.5 -42t-188 -17.5q-208 0 -384 100.5t-279 274.5t-103 379z" />
<glyph unicode="H" horiz-adv-x="1685" d="M96 1329l17 105q27 6 59 6q36 0 106.5 -12.5t106.5 -12.5t106.5 12.5t106.5 12.5q32 0 59 -6l17 -105q-46 25 -101 25q-22 0 -34.5 -21.5t-14.5 -52.5l-16 -477h670l-17 477q-2 31 -14 52.5t-35 21.5q-56 0 -100 -25l16 105q28 6 59 6q36 0 107 -12.5t106 -12.5 q36 0 107 12.5t106 12.5q31 0 60 -6l16 -105q-44 25 -100 25q-23 0 -35 -21.5t-14 -52.5l-37 -1126q-2 -29 13.5 -51.5t39.5 -22.5q60 0 109 24l-17 -104q-30 -6 -65 -6q-31 0 -91.5 12t-91.5 12q-30 0 -90.5 -12t-91.5 -12q-35 0 -65 6l-17 104q50 -24 109 -24 q24 0 39.5 22.5t13.5 51.5l-18 563l-455 -12q-131 -5 -223 -95l-15 -456q-2 -29 14 -51.5t40 -22.5q59 0 108 24l-16 -104q-31 -6 -66 -6q-31 0 -91 12t-91 12t-91 -12t-91 -12q-35 0 -66 6l-16 104q49 -24 108 -24q24 0 40 22.5t14 51.5l-37 1126q-2 31 -14.5 52.5 t-34.5 21.5q-55 0 -101 -25z" />
<glyph unicode="I" horiz-adv-x="770" d="M96 1329l17 105q27 6 59 6q36 0 106.5 -12.5t106.5 -12.5t106.5 12.5t106.5 12.5q32 0 59 -6l17 -105q-46 25 -101 25q-22 0 -34.5 -21.5t-14.5 -52.5l-37 -1126q-2 -29 14 -51.5t40 -22.5q59 0 108 24l-16 -104q-31 -6 -66 -6q-31 0 -91 12t-91 12t-91 -12t-91 -12 q-35 0 -66 6l-16 104q49 -24 108 -24q24 0 40 22.5t14 51.5l-37 1126q-2 31 -14.5 52.5t-34.5 21.5q-55 0 -101 -25z" />
<glyph unicode="J" horiz-adv-x="770" d="M33 -254q125 0 190 90q60 84 60 215v21l-37 1208q-2 31 -14.5 52.5t-34.5 21.5q-55 0 -101 -25l17 105q27 6 59 6q36 0 106.5 -12.5t106.5 -12.5t106.5 12.5t106.5 12.5q32 0 59 -6l17 -105q-46 25 -101 25q-22 0 -34.5 -21.5t-14.5 -52.5l-37 -1065q-6 -167 -47.5 -274 t-129.5 -180t-244 -130q-5 66 -33 115z" />
<glyph unicode="K" horiz-adv-x="1667" d="M96 1329l17 105q27 6 59 6q36 0 106.5 -12.5t106.5 -12.5t106.5 12.5t106.5 12.5q32 0 59 -6l17 -105q-46 25 -101 25q-22 0 -34.5 -21.5t-14.5 -52.5l-24 -754l671 754q21 25 17 49.5t-25 24.5q-52 0 -98 -25l16 105q29 6 58 6q21 0 63.5 -12.5t65.5 -12.5t65.5 12.5 t63.5 12.5q30 0 57 -6l16 -105q-44 25 -98 25q-21 0 -90 -74l-387 -424q347 -302 485 -727q19 -49 64 -49q66 0 127 18l-17 -98q-36 -6 -69 -6q-35 0 -103.5 12t-103.5 12q-66 0 -127 -18q0 102 -33.5 199t-94.5 180.5t-135 154t-165 134.5l-227 -248l-9 -266 q-2 -29 14 -51.5t40 -22.5q59 0 108 24l-16 -104q-31 -6 -66 -6q-31 0 -91 12t-91 12t-91 -12t-91 -12q-35 0 -66 6l-16 104q49 -24 108 -24q24 0 40 22.5t14 51.5l-37 1126q-2 31 -14.5 52.5t-34.5 21.5q-55 0 -101 -25z" />
<glyph unicode="L" horiz-adv-x="1277" d="M96 1329l17 105q27 6 59 6q36 0 106.5 -12.5t106.5 -12.5t106.5 12.5t106.5 12.5q32 0 59 -6l17 -105q-46 25 -101 25q-22 0 -34.5 -21.5t-14.5 -52.5l-37 -1126q-1 -27 18 -45.5t43.5 -27.5t71 -14t75.5 -5t83 -1q120 0 205.5 82.5t85.5 200.5q0 64 -12 129 q73 -56 172 -86q-99 -172 -99 -362q-117 -50 -247 -50q-84 0 -249.5 21.5t-248.5 21.5q-31 0 -91 -12t-91 -12q-35 0 -66 6l-16 104q49 -24 108 -24q24 0 40 22.5t14 51.5l-37 1126q-2 31 -14.5 52.5t-34.5 21.5q-55 0 -101 -25z" />
<glyph unicode="M" horiz-adv-x="2054" d="M96 1329l17 105q30 6 63 6q22 0 62 -12.5t61 -12.5q46 0 139 9.5t140 9.5q0 -118 33 -242t86 -238.5t109 -221.5t113.5 -231t88.5 -229q34 105 98 229t126.5 230t121.5 219.5t96 238t37 245.5q31 0 91 -9.5t91 -9.5q36 0 106.5 12.5t106.5 12.5q32 0 60 -6l16 -105 q-46 25 -100 25q-23 0 -35.5 -21.5t-14.5 -52.5l-36 -1126q-2 -29 13.5 -51.5t39.5 -22.5q60 0 108 24l-16 -104q-31 -6 -66 -6q-30 0 -90.5 12t-91.5 12t-91 -12t-91 -12q-35 0 -66 6l-16 104q49 -24 108 -24q24 0 40 22.5t14 51.5l-33 1026q-33 -108 -97 -233.5 t-127.5 -233.5t-124 -223t-98.5 -241.5t-38 -248.5q-52 9 -103 9t-102 -9q0 122 -39 248t-101 239.5t-128 220.5t-132.5 231t-101.5 230l8 -1015q0 -31 10.5 -52.5t32.5 -21.5q48 0 84 24l-16 -104q-23 -6 -47 -6q-20 0 -58 12t-57 12t-57 -12t-58 -12q-24 0 -47 6l-16 104 q36 -24 84 -24q22 0 32.5 21.5t10.5 52.5l8 1126q0 30 -14 52t-39 22q-58 0 -107 -25z" />
<glyph unicode="N" horiz-adv-x="1593" d="M96 1329l17 105q30 6 63 6q22 0 62 -12.5t61 -12.5q40 0 118 9.5t118 9.5q0 -74 20 -148.5t52.5 -137.5t81 -129.5t97 -119t109.5 -111.5q251 -238 354 -419l-10 911q-2 31 -14 52.5t-35 21.5q-54 0 -98 -25l16 105q27 6 57 6q21 0 63.5 -12.5t65.5 -12.5t65.5 12.5 t63.5 12.5q29 0 58 -6l16 -105q-46 25 -98 25q-23 0 -35 -21.5t-14 -52.5l-13 -1108q0 -97 17 -172q-51 9 -102.5 9t-102.5 -9q0 43 -8 86.5t-19 79.5t-34.5 78.5t-40.5 72t-52 71.5t-55 65.5t-62.5 67t-61 62t-64.5 62.5q-74 70 -117.5 113t-105 108t-106.5 127t-79 125 l6 -964q0 -31 10.5 -52.5t32.5 -21.5q48 0 84 24l-16 -104q-23 -6 -47 -6q-20 0 -58 12t-57 12t-57 -12t-58 -12q-24 0 -47 6l-16 104q36 -24 84 -24q22 0 32.5 21.5t10.5 52.5l8 1126q0 30 -14 52t-39 22q-58 0 -107 -25z" />
<glyph unicode="O" horiz-adv-x="1736" d="M96 717q0 153 61.5 291t165.5 236t246.5 156t298.5 58t298.5 -58t246.5 -156t165.5 -236t61.5 -291q0 -204 -104.5 -375t-282 -269t-385.5 -98t-385.5 98t-282 269t-104.5 375zM354 803q0 -145 44 -279.5t120.5 -237t190.5 -164t245 -61.5q97 0 179 48t135.5 128 t83.5 182t30 212q0 145 -43.5 279t-120.5 236.5t-190.5 164t-245.5 61.5q-128 0 -227.5 -82t-150 -210.5t-50.5 -276.5z" />
<glyph unicode="P" horiz-adv-x="1415" d="M96 1329l17 105q27 6 59 6q36 0 106.5 -12.5t106.5 -12.5q62 0 185.5 21.5t187.5 21.5q147 0 275 -59.5t207 -170t79 -245.5q0 -243 -152.5 -379.5t-408.5 -136.5q-133 0 -258 45l-13 -358q-1 -40 39.5 -57t100.5 -17q100 0 149 6t146 29v-16q0 -49 16 -99 q-74 -12 -150 -12q-68 0 -202 15t-201 15q-31 0 -91 -12t-91 -12q-35 0 -66 6l-16 104q49 -24 108 -24q24 0 40 22.5t14 51.5l-37 1126q-2 31 -14.5 52.5t-34.5 21.5q-55 0 -101 -25zM502 621q115 -68 256 -68q91 0 161.5 58.5t106 150t35.5 196.5q0 107 -35.5 200.5 t-106 153.5t-161.5 60h-47t-45 -2t-45 -5.5t-37 -10t-32 -16t-19.5 -24.5t-8.5 -34z" />
<glyph unicode="Q" horiz-adv-x="1736" d="M96 717q0 153 61.5 291t165.5 236t246.5 156t298.5 58t298.5 -58t246.5 -156t165.5 -236t61.5 -291q0 -178 -81.5 -333t-221.5 -257.5t-313 -136.5q41 -16 82.5 -45t74.5 -55.5t72.5 -51.5t93 -40t119.5 -15q44 0 86 12v-17q0 -77 25 -155q-108 0 -190.5 31t-163.5 102 q-21 18 -63 57.5t-68.5 61.5t-65 48.5t-77.5 39t-81 12.5q-208 0 -385.5 98t-282 269t-104.5 375zM354 803q0 -145 44 -279.5t120.5 -237t190.5 -164t245 -61.5q97 0 179 48t135.5 128t83.5 182t30 212q0 145 -43.5 279t-120.5 236.5t-190.5 164t-245.5 61.5 q-128 0 -227.5 -82t-150 -210.5t-50.5 -276.5z" />
<glyph unicode="R" horiz-adv-x="1529" d="M96 1329l17 105q27 6 59 6q36 0 106.5 -12.5t106.5 -12.5q66 0 198.5 21.5t200.5 21.5q140 0 260.5 -62.5t192.5 -174t72 -246.5q0 -254 -219 -371q163 -216 249 -475q19 -49 64 -49q65 0 127 18l-17 -98q-36 -6 -69 -6q-35 0 -103.5 12t-103.5 12q-65 0 -127 -18 q0 286 -266 537q-46 -7 -105 -7q-108 0 -239 23l-13 -399q-2 -29 14 -51.5t40 -22.5q59 0 108 24l-16 -104q-31 -6 -66 -6q-31 0 -91 12t-91 12t-91 -12t-91 -12q-35 0 -66 6l-16 104q49 -24 108 -24q24 0 40 22.5t14 51.5l-37 1126q-2 31 -14.5 52.5t-34.5 21.5 q-55 0 -101 -25zM504 664q115 -48 235 -48q175 0 243.5 76t68.5 258q0 190 -78 306t-234 116q-46 0 -77 -2.5t-66 -11t-53 -28t-19 -50.5z" />
<glyph unicode="S" horiz-adv-x="1224" d="M49 199q109 101 172 227q7 -84 69.5 -169.5t154 -140.5t176.5 -55q94 0 177 32.5t136 97t53 147.5q0 72 -37.5 129.5t-103.5 95.5t-139.5 62t-161.5 39q-84 14 -157.5 42.5t-134.5 71.5t-96.5 105t-35.5 135q0 124 69 225.5t183.5 158t247.5 56.5q254 0 460 -155 q-78 -76 -129 -179q-32 111 -124 179.5t-207 68.5q-126 0 -218 -76t-92 -190q0 -35 12.5 -64t31.5 -50t51 -39.5t61 -30t73 -23t75.5 -17.5t78.5 -14q96 -16 182 -53.5t154 -92.5t108 -131.5t40 -164.5q0 -131 -79.5 -235.5t-206 -160t-271.5 -55.5q-160 0 -307.5 58 t-264.5 166z" />
<glyph unicode="T" horiz-adv-x="1361" d="M47 1042q0 194 64 392q95 0 285.5 -12.5t285.5 -12.5q94 0 284 12.5t285 12.5q0 -206 64 -392q-89 -31 -156 -86q6 58 6 119q0 103 -71.5 175.5t-173.5 72.5h-99l-37 -1169q-1 -32 23 -53t59 -21q84 0 166 24l-16 -104q-56 -6 -109 -6q-38 0 -112.5 12t-112.5 12 q-39 0 -114.5 -12t-112.5 -12q-55 0 -107 6l-16 104q80 -24 164 -24q34 0 59 21t25 53l-37 1169h-101q-114 0 -197 -71t-83 -177q0 -51 14 -119q-57 53 -129 86z" />
<glyph unicode="U" horiz-adv-x="1566" d="M96 1329l17 105q27 6 59 6q36 0 106.5 -12.5t106.5 -12.5t106.5 12.5t106.5 12.5q32 0 59 -6l17 -105q-46 25 -101 25q-22 0 -34.5 -21.5t-14.5 -52.5l-26 -850v-11q0 -145 103 -249q107 -108 261 -109q151 0 257.5 108.5t105.5 260.5l-8 850q0 30 -14 52t-38 22 q-54 0 -100 -25l16 105q31 6 60 6q21 0 63 -12.5t64 -12.5t64 12.5t63 12.5q29 0 59 -6l16 -105q-44 25 -100 25q-24 0 -37.5 -22t-13.5 -52l-8 -850q-1 -215 -143.5 -335t-376.5 -120q-231 0 -371.5 119.5t-147.5 335.5l-26 850q-2 31 -14.5 52.5t-34.5 21.5 q-55 0 -101 -25z" />
<glyph unicode="V" horiz-adv-x="1333" d="M49 1329l17 105q18 6 36 6q33 0 96.5 -12.5t96.5 -12.5t96 12.5t96 12.5q19 0 37 -6l17 -105q-31 25 -72 25q-35 0 -35 -74q0 -123 34.5 -262.5t79 -247.5t99.5 -252.5t82 -249.5q26 79 66 164q173 378 228 533q63 176 63 272q0 91 -56 111q-17 6 -39 6q-67 0 -127 -19 l17 99q36 6 69 6q35 0 103.5 -12.5t103.5 -12.5q69 0 129 19q0 -107 -28.5 -218t-74.5 -209t-101 -197t-110 -198.5t-101 -197.5t-74.5 -208.5t-28.5 -217.5q-51 9 -102.5 9t-102.5 -9q0 108 -30 224.5t-75.5 213.5t-98 208t-98 208t-75.5 213.5t-30 224.5q0 74 -35 74 q-41 0 -72 -25z" />
<glyph unicode="W" horiz-adv-x="2197" d="M49 1329l17 105q18 6 36 6q33 0 96.5 -12.5t96.5 -12.5t96 12.5t96 12.5q19 0 37 -6l17 -105q-31 25 -72 25q-35 0 -35 -74q0 -120 33.5 -256.5t76 -241.5t97 -246.5t82.5 -242.5q30 119 90.5 281.5t109.5 284.5t87.5 279.5t38.5 295.5q68 -13 137.5 -13t140.5 13 q0 -140 41 -298.5t93.5 -281t116.5 -285t95 -282.5q29 90 49 143q41 105 61.5 160.5t58 161.5t54.5 174t33 148q13 66 13 116v21q-4 57 -25 94q-29 49 -62 49q-68 0 -126 -19l16 99q36 6 70 6q35 0 103 -12.5t103 -12.5q69 0 129 19q0 -141 -45 -295t-109 -291l-128 -274 t-109 -291t-45 -295q-51 9 -102.5 9t-102.5 -9q0 117 -31 239t-81.5 235t-104 218.5t-109.5 229t-87 225.5q-30 -120 -90 -283t-109.5 -285.5t-88 -281t-38.5 -297.5q-51 9 -102.5 9t-102.5 -9q0 108 -30.5 224.5t-75.5 213.5t-98.5 208t-98.5 208t-75.5 213.5t-30.5 224.5 q0 74 -35 74q-41 0 -72 -25z" />
<glyph unicode="X" horiz-adv-x="1536" d="M49 104q67 -24 141 -24q62 0 113 74l371 538q-72 71 -109 109t-96.5 105.5t-93.5 118.5t-67.5 118.5t-49.5 134.5q-8 33 -26 54.5t-44 21.5q-54 0 -102 -19l16 99q38 6 70 6q35 0 103.5 -12.5t103.5 -12.5q23 0 69 9.5t70 9.5q0 -161 67 -300.5t191 -289.5l301 436 q17 25 12.5 49.5t-24.5 24.5q-58 0 -107 -25l17 105q30 6 63 6q20 0 60.5 -12.5t62.5 -12.5q21 0 61 12.5t60 12.5q32 0 66 -6l16 -105q-51 25 -109 25q-27 0 -48 -19.5t-44 -54.5l-334 -496q28 -32 86 -97t90.5 -102.5t81.5 -98t80.5 -107.5t64 -107t54.5 -118 q11 -32 36 -53t58 -21q56 0 109 24l-16 -104q-35 -6 -66 -6t-91 12t-91 12q-32 0 -93 -12t-92 -12q-33 0 -63 6l-16 104q48 -24 106 -24q20 0 22.5 24t-8.5 50q-47 127 -134 239.5t-218 243.5l-323 -483q-16 -25 -6 -49.5t36 -24.5q73 0 142 24l-17 -104q-47 -6 -90 -6 q-26 0 -78.5 12t-79.5 12t-79 -12t-78 -12q-45 0 -90 6z" />
<glyph unicode="Y" horiz-adv-x="1345" d="M49 1329l17 105q15 6 36 6q32 0 96 -12.5t97 -12.5q31 0 95 12.5t95 12.5q21 0 39 -6l17 -105q-31 25 -72 25q-35 0 -35 -74q0 -208 87.5 -396t246.5 -321q130 104 213 230q135 196 135 391q0 69 -29.5 119.5t-82.5 50.5q-64 0 -121 -19l16 99q35 6 68 6t100 -12.5 t100 -12.5q69 0 129 19q0 -286 -159 -562q-131 -227 -334 -391v-327q0 -32 25 -53t59 -21q83 0 164 24l-17 -104q-52 -6 -106 -6q-38 0 -114 12t-114 12q-37 0 -112 -12t-113 -12q-54 0 -108 6l-17 104q80 -24 166 -24q33 0 57.5 21t24.5 53v303q-113 74 -215.5 216.5 t-164.5 307t-62 299.5q0 74 -37 74q-42 0 -70 -25z" />
<glyph unicode="Z" horiz-adv-x="1425" d="M96 129q132 124 228 245t156.5 226t117.5 209t147.5 234.5t210.5 261.5q-58 0 -175 9t-177 9q-186 0 -258 -83.5t-72 -283.5q-51 75 -129 129q86 171 86 373q111 0 330.5 -24.5t329.5 -24.5q182 0 358 37q9 -71 43 -141q-102 -89 -182.5 -179.5t-133 -169.5t-98 -159 t-90.5 -160t-97.5 -159t-133 -169.5t-182.5 -179.5q87 0 258 -34t258 -34q180 0 256 99t76 305q74 -55 155 -78q-86 -183 -86 -387q-159 -25 -307 -25q-99 0 -297 18.5t-297 18.5q-129 0 -252 -24q-9 75 -43 141z" />
<glyph unicode="[" horiz-adv-x="591" d="M113 1477q44 -19 98 -19q43 0 127.5 12.5t126.5 12.5q43 0 84 -6l16 -99q-89 19 -186 19q-94 0 -94 -49l-25 -1672q0 -49 102 -49q108 0 203 19l-16 -99q-41 -6 -84 -6q-42 0 -126.5 12.5t-127.5 12.5q-40 0 -74 -19q25 60 25 129l-25 1672q0 68 -24 129z" />
<glyph unicode="\" horiz-adv-x="1024" d="M-18 1536q80 -15 159 0q132 -365 412 -1006q275 -629 489 -1042q-80 15 -159 0q-35 98 -76 203.5t-81 202t-84 201t-85 200t-86 199.5q-36 86 -75.5 177t-77 176.5t-78.5 175t-81.5 173.5t-86 171.5t-90.5 168.5z" />
<glyph unicode="]" horiz-adv-x="591" d="M27 -354q95 -19 202 -19q103 0 103 49l-25 1672q0 49 -94 49q-97 0 -186 -19l16 99q41 6 84 6q42 0 126.5 -12.5t127.5 -12.5q54 0 98 19q-24 -61 -24 -129l-25 -1672q0 -69 25 -129q-34 19 -74 19q-43 0 -127.5 -12.5t-126.5 -12.5q-43 0 -84 6z" />
<glyph unicode="^" horiz-adv-x="1024" d="M94 717q217 338 375 717h86q158 -379 375 -717q-74 12 -148 0l-270 631l-270 -631q-74 12 -148 0z" />
<glyph unicode="_" horiz-adv-x="1024" d="M0 -111q255 -24 512 -24t512 24q-12 -73 0 -147q-266 25 -512 25t-512 -25q12 74 0 147z" />
<glyph unicode="`" horiz-adv-x="952" d="M190 1434q109 -20 218 0q0 -100 48.5 -182t135.5 -113l-29 -80q-76 27 -138.5 61t-117.5 79.5t-86 105.5t-31 129z" />
<glyph unicode="a" horiz-adv-x="1081" d="M63 322q0 151 115 256.5t273 105.5q142 0 247 -102l-6 141q-3 73 -52.5 125.5t-119.5 52.5q-84 0 -160 -37.5t-129 -105.5q-24 61 -71 108q188 121 403 121q155 1 269 -71q110 -69 110 -185v-8l-24 -594q-2 -20 11.5 -34.5t33.5 -14.5q45 0 88 18l-17 -98q-27 -6 -55 -6 q-27 0 -81 12t-81 12q-63 0 -125 -18q15 34 21 72q-106 -97 -262 -97q-158 0 -273 100t-115 247zM285 365q0 -124 71 -214t181 -90q54 0 101 25.5t77 69.5l-13 327q-77 115 -208 115q-110 0 -159.5 -57t-49.5 -176z" />
<glyph unicode="b" horiz-adv-x="1208" d="M63 1335l17 99q27 6 59 6q30 0 89.5 -12.5t88.5 -12.5q83 0 160 19q-21 -62 -24 -129l-11 -414q91 96 217 96q104 0 195 -45.5t154.5 -121.5t100 -177t36.5 -211t-60 -216t-160 -173.5t-206 -67.5q-85 0 -162.5 35t-136.5 96l-2 -106q-50 14 -100 14t-101 -14l-35 1305 q0 19 -11 34t-28 15q-43 0 -80 -19zM424 233q38 -78 104 -125t148 -47q78 0 134 55.5t80.5 137.5t24.5 178q0 114 -32.5 212t-102.5 163t-164 65q-46 0 -94 -28t-84 -74z" />
<glyph unicode="c" horiz-adv-x="1040" d="M63 494q0 203 142 348t342 145q123 0 226.5 -67t154.5 -179q-126 -66 -217 -163q2 20 2 39q0 61 -17 116q-22 73 -72.5 120.5t-119.5 47.5q-100 0 -155.5 -95.5t-55.5 -225.5q0 -110 44 -229t124.5 -204.5t171.5 -85.5q58 0 105 26t72.5 62.5t38.5 70t13 54.5 q59 -41 115 -57q-69 -112 -184 -177t-246 -65q-121 0 -234 76.5t-181.5 197t-68.5 245.5z" />
<glyph unicode="d" horiz-adv-x="1183" d="M63 481q0 134 56.5 249.5t159 186t227.5 70.5q148 0 258 -108l-12 426q0 19 -11.5 34t-27.5 15q-45 0 -80 -19l16 99q29 6 60 6q29 0 88.5 -12.5t89.5 -12.5q81 0 160 19q-22 -60 -25 -129l-35 -1176q0 -20 13 -34.5t32 -14.5q46 0 88 18l-16 -98q-28 -6 -55 -6 q-28 0 -81.5 12t-80.5 12q-63 0 -125 -18q21 49 24 104q-83 -129 -221 -129q-137 0 -252.5 68t-182.5 184.5t-67 253.5zM293 524q0 -92 43 -192.5t117.5 -171t154.5 -70.5q74 0 115 48t59 134l-14 453q-36 79 -106 127.5t-156 48.5q-58 0 -100.5 -32t-66.5 -87.5t-35 -120 t-11 -137.5z" />
<glyph unicode="e" horiz-adv-x="1112" d="M63 481q0 137 65.5 253t179.5 184.5t249 68.5q132 0 245.5 -64t180 -175t66.5 -242h-672q-34 0 -56.5 -11t-19.5 -34q28 -171 131 -285.5t254 -114.5q59 0 121.5 68.5t62.5 130.5q47 -44 107 -70q-62 -95 -152 -155t-182 -60q-153 0 -285.5 64.5t-213.5 181.5t-81 260z M293 592h399q32 0 54 18q17 14 17 31q0 5 -1 10q-26 111 -90 180.5t-158 69.5q-67 0 -117.5 -45t-75 -113.5t-28.5 -150.5z" />
<glyph unicode="f" horiz-adv-x="755" d="M63 852l25 135q70 -24 145 -24l-4 86v13q0 101 43 188q45 94 129 151t187 57q83 0 143 -59t60 -142q-76 0 -129 -43q0 158 -74 158q-49 0 -74 -46t-27 -112l-8 -251q109 0 213 24l-24 -135q-97 25 -191 25l-18 -723q0 -74 39 -74q42 0 75 24l-16 -104q-18 -6 -41 -6 q-26 0 -78.5 12t-79.5 12q-26 0 -78 -12t-79 -12q-23 0 -41 6l-17 104q35 -24 76 -24q22 0 31.5 22t7.5 52l-22 723q-86 0 -173 -25z" />
<glyph unicode="g" horiz-adv-x="1206" d="M63 481q0 134 56.5 249.5t159 186t227.5 70.5q146 0 246 -123q-7 58 -23 99q77 -19 160 -19q29 0 89 12.5t89 12.5q32 0 59 -6l17 -99q-37 19 -80 19q-17 0 -28 -15t-11 -34l-25 -738q-5 -145 -91 -262.5t-222.5 -180.5t-294.5 -63q-52 0 -95.5 6.5t-83.5 21t-62.5 42.5 t-22.5 68q0 72 35 136.5t96 104.5l70 -51q-49 -64 -49 -147q0 -95 198 -95q133 0 219 110q82 103 82 241v16v31q-91 -99 -213 -99q-137 0 -252.5 68t-182.5 184.5t-67 253.5zM293 524q0 -92 43 -192.5t117.5 -171t154.5 -70.5q58 0 99.5 36t64.5 97l-14 457 q-74 221 -252 221q-58 0 -100.5 -32t-66.5 -87.5t-35 -120t-11 -137.5z" />
<glyph unicode="h" horiz-adv-x="1296" d="M96 1335l17 99q27 6 57 6q28 0 85 -12.5t87 -12.5q83 0 160 19q-25 -60 -25 -129l-16 -482q82 76 198 120t230 44q75 0 131 -50q56 -51 82 -129q22 -66 23 -139q0 -14 -1 -28l-20 -487v-13q0 -61 37 -61q43 0 78 24l-17 -104q-21 -6 -43 -6q-27 0 -78 12t-77 12 q-28 0 -80 -12t-78 -12q-23 0 -41 6l-17 104q32 -24 76 -24q39 0 39 74l-22 487q-2 48 -6.5 83t-16 72t-34 56.5t-56.5 19.5q-92 0 -179.5 -51.5t-131.5 -130.5l-15 -536q-2 -30 7 -52t30 -22q45 0 78 24l-16 -104q-23 -6 -43 -6q-27 0 -78.5 12t-77.5 12q-28 0 -79.5 -12 t-78.5 -12q-22 0 -41 6l-16 104q30 -24 76 -24q39 0 39 74l-35 1151q-2 20 -11.5 34.5t-25.5 14.5q-40 0 -74 -19z" />
<glyph unicode="i" horiz-adv-x="595" d="M63 864l17 99q27 6 59 6q30 0 89.5 -12.5t88.5 -12.5q83 0 160 19q-21 -61 -24 -129l-35 -680q-2 -31 7.5 -52.5t31.5 -21.5q42 0 75 24l-16 -104q-18 -6 -41 -6q-26 0 -78.5 12t-79.5 12t-79 -12t-78 -12q-23 0 -41 6l-17 104q34 -24 76 -24q22 0 31.5 21.5t7.5 52.5 l-35 680q-2 20 -12.5 34.5t-26.5 14.5q-43 0 -80 -19zM172 1245q0 61 43 104.5t104 43.5q60 0 104 -43.5t44 -104.5t-44 -104t-104 -43q-61 0 -104 43t-43 104z" />
<glyph unicode="j" horiz-adv-x="669" d="M-33 -272q0 70 33.5 131.5t93.5 97.5l35 -55q-47 -56 -47 -131q0 -27 15.5 -46.5t39.5 -19.5q69 0 109 62q37 58 37 135v12l-35 920q-1 21 -19.5 35t-42.5 14q-63 0 -123 -19l17 99q36 6 76 6q37 0 113 -12.5t114 -12.5q81 0 160 19q-22 -59 -25 -129l-35 -641 q-6 -117 -31 -220.5t-70.5 -191.5t-119.5 -139.5t-168 -51.5q-53 0 -90 41t-37 97zM238 1245q0 62 43 105t104 43q60 0 103.5 -43.5t43.5 -104.5t-43.5 -104t-103.5 -43q-61 0 -104 43t-43 104z" />
<glyph unicode="k" horiz-adv-x="1277" d="M63 1335l17 99q30 6 59 6q31 0 90.5 -12.5t89.5 -12.5q83 0 160 19q-24 -62 -24 -129l-27 -826q69 10 123 29q73 26 146.5 74t128.5 117t55 135q0 22 -19 35.5t-45 13.5q-66 0 -123 -19l17 99q30 6 67 6q34 0 101 -12.5t102 -12.5q65 0 125 19q-76 -238 -272 -398 q63 -78 108 -164q56 -106 88 -235q8 -36 34 -61t60 -25q48 0 90 18l-16 -98q-24 -6 -53 -6t-83 12t-81 12q-67 0 -125 -18q-12 147 -88 276q-61 99 -145 166q-92 -36 -197 -51l-6 -237v-13q0 -61 37 -61q43 0 78 24l-17 -104q-21 -6 -43 -6q-26 0 -77.5 12t-78.5 12 q-28 0 -79.5 -12t-77.5 -12q-23 0 -41 6l-17 104q32 -24 76 -24q39 0 39 74l-35 1151q-2 20 -12.5 34.5t-28.5 14.5q-43 0 -80 -19z" />
<glyph unicode="l" horiz-adv-x="595" d="M63 1335l17 99q30 6 59 6q31 0 90.5 -12.5t89.5 -12.5q83 0 160 19q-24 -62 -24 -129l-35 -1151v-13q0 -61 37 -61q43 0 78 24l-17 -104q-21 -6 -43 -6q-26 0 -77.5 12t-78.5 12q-28 0 -79.5 -12t-77.5 -12q-23 0 -41 6l-17 104q32 -24 76 -24q39 0 39 74l-35 1151 q-2 20 -12.5 34.5t-28.5 14.5q-43 0 -80 -19z" />
<glyph unicode="m" horiz-adv-x="1918" d="M63 864l17 99q30 6 59 6q31 0 90.5 -12.5t89.5 -12.5q83 0 160 19q-21 -61 -24 -129l-2 -7q73 74 168 117t190 43q85 0 152.5 -47.5t103.5 -126.5q96 84 215 129t246 45q75 0 131 -50q57 -51 83 -129q22 -66 22 -139q0 -14 -1 -28l-20 -487v-13q0 -61 37 -61q44 0 78 24 l-17 -104q-21 -6 -43 -6q-26 0 -77.5 12t-78.5 12q-28 0 -79.5 -12t-77.5 -12q-23 0 -41 6l-17 104q31 -24 76 -24q39 0 39 74l-22 487q-2 48 -6.5 83t-16 72t-34 56.5t-56.5 19.5q-186 0 -313 -133q9 -42 9 -78q0 -10 -1 -20l-21 -487v-13q0 -61 37 -61q45 0 78 24 l-16 -104q-22 -6 -43 -6q-27 0 -78.5 12t-77.5 12q-28 0 -79.5 -12t-78.5 -12q-21 0 -41 6l-16 104q30 -24 76 -24q39 0 39 74l-23 487q-2 49 -6.5 83.5t-15.5 71.5t-34 56.5t-57 19.5q-88 0 -170.5 -54.5t-128.5 -137.5l-26 -526v-13q0 -61 37 -61q43 0 78 24l-17 -104 q-21 -6 -43 -6q-26 0 -77.5 12t-78.5 12q-28 0 -79.5 -12t-77.5 -12q-23 0 -41 6l-17 104q32 -24 76 -24q39 0 39 74l-35 680q-2 20 -12.5 34.5t-28.5 14.5q-43 0 -80 -19z" />
<glyph unicode="n" horiz-adv-x="1257" d="M63 864l17 99q30 6 59 6q31 0 90.5 -12.5t89.5 -12.5q83 0 160 19q-21 -61 -24 -129l-2 -7q73 74 168 117t190 43q129 1 213 -103q79 -97 78 -225v-18l-21 -487v-13q0 -61 37 -61q45 0 78 24l-16 -104q-22 -6 -43 -6q-27 0 -78.5 12t-77.5 12q-28 0 -79.5 -12t-78.5 -12 q-21 0 -41 6l-16 104q30 -24 76 -24q39 0 39 74l-23 487q-2 49 -6.5 83.5t-15.5 71.5t-34 56.5t-57 19.5q-88 0 -170.5 -54.5t-128.5 -137.5l-26 -526v-13q0 -61 37 -61q43 0 78 24l-17 -104q-21 -6 -43 -6q-26 0 -77.5 12t-78.5 12q-28 0 -79.5 -12t-77.5 -12q-23 0 -41 6 l-17 104q32 -24 76 -24q39 0 39 74l-35 680q-2 20 -12.5 34.5t-28.5 14.5q-43 0 -80 -19z" />
<glyph unicode="o" horiz-adv-x="1200" d="M111 481q0 135 58 250.5t163 185.5t233 70q144 0 267.5 -66t197.5 -183t74 -257q0 -134 -58.5 -250t-163 -186t-231.5 -70q-145 0 -269 66t-197.5 183t-73.5 257zM340 567q0 -87 21.5 -175t59.5 -162.5t98.5 -121.5t131.5 -47q64 0 109.5 28t69 77.5t34 105.5t10.5 123 q0 87 -21 175.5t-59 163t-98 121t-131 46.5q-225 0 -225 -334z" />
<glyph unicode="p" horiz-adv-x="1187" d="M63 864l17 99q27 6 59 6q30 0 88.5 -12.5t89.5 -12.5q83 0 160 19q-15 -39 -22 -93q89 117 227 117q125 0 227 -70.5t158.5 -186t56.5 -249.5q0 -132 -49.5 -247t-144 -187t-213.5 -72q-84 0 -158.5 36.5t-128.5 99.5l-12 -392q-1 -19 14 -34t37 -15q55 0 102 19l-16 -99 q-30 -6 -59 -6q-31 0 -90 12.5t-89 12.5q-66 0 -124 -19q24 62 24 129l-35 1115q-2 20 -12.5 34.5t-28.5 14.5q-41 0 -78 -19zM434 264q29 -90 92.5 -146.5t147.5 -56.5q71 0 122.5 50t75 124t23.5 160q0 93 -12.5 173.5t-40.5 151t-80 111.5t-123 41q-64 0 -113 -37 t-77 -100z" />
<glyph unicode="q" horiz-adv-x="1142" d="M63 481q0 134 56.5 249.5t159 186t227.5 70.5q142 0 248 -98l-2 74q146 0 295 24q-22 -66 -25 -139l-35 -1129q0 -20 15 -34.5t36 -14.5q55 0 103 19l-17 -99q-27 -6 -59 -6q-29 0 -89 12.5t-89 12.5q-65 0 -125 -19q24 56 24 116v13l-10 369q-79 -113 -211 -113 q-137 0 -252.5 68t-182.5 184.5t-67 253.5zM293 524q0 -92 43 -192.5t117.5 -171t154.5 -70.5q124 0 164 143l-14 512q-39 71 -106 113.5t-146 42.5q-58 0 -100.5 -32t-66.5 -87.5t-35 -120t-11 -137.5z" />
<glyph unicode="r" horiz-adv-x="980" d="M63 864l17 99q27 6 59 6q30 0 89.5 -12.5t88.5 -12.5q83 0 160 19q-21 -61 -24 -129l-4 -95q70 109 155.5 178.5t163.5 69.5q66 0 108 -54.5t42 -129.5q0 -149 -87 -273q-65 63 -141 99q78 72 78 174q0 28 -14.5 48.5t-38.5 20.5q-72 0 -150.5 -99.5t-126.5 -227.5 l-20 -391q-2 -31 7.5 -52.5t31.5 -21.5q107 0 198 49l-16 -129q-83 -6 -164 -6q-26 0 -78.5 12t-79.5 12t-79 -12t-78 -12q-23 0 -41 6l-17 104q34 -24 76 -24q22 0 31.5 21.5t7.5 52.5l-35 680q-2 20 -12.5 34.5t-26.5 14.5q-43 0 -80 -19z" />
<glyph unicode="s" horiz-adv-x="933" d="M33 133q109 98 172 221q0 -120 77 -206.5t191 -86.5q63 0 115.5 15t88.5 50t36 85q0 49 -26 88.5t-70.5 65t-96 41t-110.5 22.5q-124 13 -212.5 75t-88.5 161q0 139 114.5 231t270.5 92q195 0 346 -119q-80 -72 -129 -174q0 87 -64 147t-153 60q-79 0 -136 -41t-57 -108 q0 -26 16.5 -46t39 -31.5t61 -20.5t66.5 -12.5t73 -8.5q145 -18 245.5 -110.5t100.5 -223.5q0 -97 -62 -172.5t-159 -113.5t-209 -38q-246 0 -440 158z" />
<glyph unicode="t" horiz-adv-x="643" d="M0 852l25 123q67 -12 137 -12l-6 184q178 72 319 201q-46 -95 -49 -201l-8 -184q84 0 162 24l-25 -123q-76 13 -139 13l-25 -705v-10q-1 -38 13 -68q16 -32 49 -33q70 0 127 43q-25 -47 -25 -104q-61 -25 -121 -25q-98 0 -169 55t-75 142l-26 705q-81 0 -164 -25z" />
<glyph unicode="u" horiz-adv-x="1216" d="M0 864l16 99q28 6 60 6q29 0 88 -12.5t90 -12.5q81 0 160 19q-22 -59 -25 -129l-24 -512v-18q0 -82 42 -144q47 -70 125 -70q92 0 159 63.5t97 165.5l-24 515q-2 20 -12.5 34.5t-26.5 14.5q-43 0 -80 -19l17 99q27 6 59 6q29 0 89 -12.5t89 -12.5q83 0 160 19 q-22 -59 -25 -129l-35 -705q-1 -20 14.5 -34.5t37.5 -14.5q53 0 102 18l-16 -98q-29 -6 -60 -6q-29 0 -89 12t-89 12q-63 0 -125 -18q25 55 25 116v13l-2 33q-63 -87 -153.5 -137t-197.5 -50q-127 0 -211.5 102.5t-91.5 244.5l-24 512q-2 19 -13 34t-28 15q-41 0 -78 -19z " />
<glyph unicode="v" horiz-adv-x="1085" d="M0 858l16 105q20 6 39 6q32 0 95.5 -12.5t95.5 -12.5t95 12.5t95 12.5q21 0 39 -6l17 -105q-33 25 -74 25q-12 0 -20 -14t-10 -24.5t-7 -35.5q-6 -32 -6 -66q1 -35 7 -70q12 -70 40.5 -134.5t60.5 -124.5t64.5 -130t46.5 -128q82 134 205 295q71 97 108 243q6 26 6 50 q0 43 -20 80q-32 59 -94 59q-66 0 -123 -19l16 99q28 6 60 6q29 0 88 -12.5t90 -12.5q47 0 92 19q0 -349 -154 -562q-266 -364 -266 -413q-50 9 -100.5 9t-100.5 -9q5 28 5 57q0 34 -7 68q-13 63 -41.5 118.5t-65 111.5t-73 111.5t-65 111t-41.5 118.5q-7 34 -7 68 q0 29 5 57q5 29 -5 51.5t-32 22.5q-43 0 -74 -25z" />
<glyph unicode="w" horiz-adv-x="1609" d="M0 858l16 105q16 6 33 6q31 0 91.5 -12.5t90.5 -12.5q31 0 91.5 12.5t91.5 12.5q17 0 32 -6l17 -105q-30 25 -64 25q-32 0 -32 -74q0 -90 23.5 -180t73 -214t64.5 -171q18 66 56 175t62 183q26 74 42 174q11 67 11 129q0 30 -3 58q68 -13 136 -13t135 13q-2 -27 -2 -54 q0 -66 13 -138q19 -102 48 -179t70 -186.5t61 -180.5q21 53 49.5 108t71.5 130t59 104q42 77 60 148q9 37 9 67q0 28 -8 52q-17 48 -73 49q-66 0 -123 -19l17 99q27 6 59 6q29 0 88 -12.5t90 -12.5q48 0 92 19q0 -98 -36.5 -202t-88.5 -195t-104 -181.5t-88.5 -194.5 t-36.5 -202q-50 9 -100 9t-101 -9q0 84 -27 177.5t-61 163.5t-82 168t-73 162q-19 -69 -69 -208t-78 -249t-28 -214q-49 9 -99 9t-101 -9q0 69 -20.5 143t-51.5 135.5t-67.5 132t-67.5 132t-51.5 135.5t-20.5 143q0 16 -1 27t-4 23t-10 18t-18 6q-35 0 -63 -25z" />
<glyph unicode="x" horiz-adv-x="1101" d="M63 104q35 -24 76 -24q30 0 88 74l209 266q-50 64 -76 99t-63 92.5t-58.5 111.5t-31.5 111q-3 20 -14.5 34.5t-28.5 14.5q-48 0 -86 -19l16 99q28 6 58 6q28 0 84.5 -12.5t85.5 -12.5q73 0 139 19q0 -163 117 -363l165 209q20 26 21 50t-19 24q-47 0 -92 -25l17 105 q24 6 53 6q21 0 61 -12.5t60 -12.5t60 12.5t61 12.5q27 0 53 -6l16 -105q-44 25 -92 25q-38 0 -96 -74l-223 -283q57 -81 126.5 -193.5t102.5 -203.5q17 -49 90 -49q51 0 96 18l-16 -98q-27 -6 -57 -6q-29 0 -85.5 12t-84.5 12q-63 0 -125 -18q-17 93 -63 176t-120 178 l-157 -200q-14 -18 -21.5 -34.5t-5 -28t15.5 -11.5q43 0 76 24l-16 -104q-18 -6 -41 -6q-18 0 -54 12t-55 12q-18 0 -53.5 -12t-54.5 -12q-23 0 -41 6z" />
<glyph unicode="y" horiz-adv-x="1112" d="M33 858l16 105q18 6 37 6q30 0 92 -12.5t94 -12.5t94 12.5t93 12.5q17 0 37 -6l16 -105q-31 25 -70 25q-34 0 -34 -74q0 -236 86 -391q24 -46 82 -129.5t81 -126.5q121 187 166 344q41 140 41 328q0 20 -13.5 34.5t-33.5 14.5q-64 0 -121 -19l17 99q30 6 59 6 q31 0 90.5 -12.5t89.5 -12.5q51 0 99 19q0 -128 -31.5 -256t-93.5 -254t-123.5 -226t-151.5 -227q-37 -53 -68 -91.5t-73.5 -81.5t-83.5 -70.5t-92.5 -45.5t-104.5 -18q-74 0 -128 49.5t-54 120.5q0 104 62.5 186.5t162.5 110.5q0 -30 17 -62q-57 -24 -92 -76.5t-35 -115.5 q0 -37 32.5 -60.5t77.5 -23.5q133 0 260 162q-30 68 -89 142.5t-122.5 151t-97.5 140.5q-86 157 -86 391q0 74 -35 74q-38 0 -69 -25z" />
<glyph unicode="z" horiz-adv-x="950" d="M33 86q98 69 163 144.5t101.5 147.5t69 144t89 160t138.5 170h-227q-171 0 -224 -164q-44 32 -86 43l86 244q228 -37 467 -37q129 0 250 37q12 -51 43 -98q-101 -69 -168 -150t-103 -156l-72 -150t-103 -156t-168 -150q55 0 160.5 -27t160.5 -27q109 0 148 67.5t39 209.5 q74 -55 155 -78q-86 -115 -86 -260q-92 -12 -186 -12q-74 0 -221.5 12t-222.5 12q-84 0 -160 -24q-11 49 -43 98z" />
<glyph unicode="{" horiz-adv-x="1024" d="M205 463v98q104 0 181 55t77 142q0 81 -12.5 241.5t-12.5 241.5q0 87 54.5 155.5t141 104t185.5 35.5v-98q-95 0 -164 -55.5t-69 -141.5q0 -81 -12.5 -241.5t-12.5 -241.5q0 -77 -43 -142t-115 -104q72 -39 115 -104t43 -142q0 -81 12.5 -241.5t12.5 -241.5 q0 -86 69 -141.5t164 -55.5v-98q-99 0 -185.5 35.5t-141 104t-54.5 155.5q0 81 12.5 241.5t12.5 241.5q0 87 -77 142t-181 55z" />
<glyph unicode="|" horiz-adv-x="569" d="M211 -512q25 340 29 1024q6 226 1.5 512.5t-30.5 511.5q73 -12 147 0q-30 -425 -30 -1024t30 -1024q-74 12 -147 0z" />
<glyph unicode="}" horiz-adv-x="1024" d="M205 -414q95 0 164 55.5t69 141.5q0 81 12.5 241.5t12.5 241.5q0 77 43 142t115 104q-72 39 -115 104t-43 142q0 81 -12.5 241.5t-12.5 241.5q0 86 -69 141.5t-164 55.5v98q99 0 185.5 -35.5t141 -104t54.5 -155.5q0 -81 -12.5 -241.5t-12.5 -241.5q0 -87 77 -142 t181 -55v-98q-104 0 -181 -55t-77 -142q0 -81 12.5 -241.5t12.5 -241.5q0 -87 -54.5 -155.5t-141 -104t-185.5 -35.5v98z" />
<glyph unicode="~" horiz-adv-x="1396" d="M63 334q52 62 82 96.5t84 90t93.5 85.5t88 54t89.5 24q48 0 95 -22.5t86.5 -55t79 -64.5t86.5 -54.5t95 -22.5q40 0 79 13.5t68.5 32t65 52t57 57t56.5 64.5l65 -55q-50 -60 -81.5 -96.5t-85 -91t-93 -85t-88 -54t-88.5 -23.5q-48 0 -95 22.5t-86.5 54.5t-79 64.5 t-86.5 55t-95 22.5q-49 0 -94 -17.5t-89 -54.5t-71.5 -66t-71.5 -81z" />
<glyph unicode="&#xa1;" horiz-adv-x="698" d="M129 -403q73 103 86 235l53 731h162l55 -1009q-60 0 -178.5 21.5t-177.5 21.5zM203 840q0 62 42.5 104.5t104.5 42.5q60 0 104 -43t44 -104t-44 -104.5t-104 -43.5q-61 0 -104 43t-43 105z" />
<glyph unicode="&#xa2;" horiz-adv-x="1040" d="M63 494q0 203 142 348t342 145q47 0 80 -8q24 134 24 238h86q0 -129 -28 -263q155 -66 219 -213q-126 -66 -217 -163q9 122 -41 219q-30 -100 -107 -313.5t-108 -327.5q84 -95 178 -95q58 0 105 26t72.5 62.5t38.5 70t13 54.5q59 -41 115 -57q-69 -112 -184 -177 t-246 -65q-64 0 -131 25q-27 -133 -27 -254h-86q0 131 35 291q-120 70 -197.5 196.5t-77.5 260.5zM293 580q0 -83 26.5 -174.5t73.5 -167.5q18 55 98.5 281.5t112.5 350.5q-43 31 -100 31q-100 0 -155.5 -95.5t-55.5 -225.5z" />
<glyph unicode="&#xa3;" horiz-adv-x="1269" d="M63 121q0 56 41.5 94t101.5 54t132 16q51 0 133 -23q-2 51 -18 112t-28 93t-47 111t-42 96h-152v86h119q-39 115 -39 203q0 96 38.5 183.5t102.5 150.5t152.5 100t185.5 37q105 0 199 -41t157.5 -108.5t92 -159t8.5 -187.5q-103 43 -221 49q20 89 -4.5 172.5t-86.5 136 t-145 52.5q-57 0 -99 -33t-65 -90.5t-33.5 -122.5t-10.5 -139q0 -94 26 -203h258v-86h-237q22 -78 42 -143.5t34 -143t14 -145.5q0 -33 -10 -68q85 -43 152.5 -66.5t137.5 -23.5q84 0 136.5 70.5t52.5 167.5h86q0 -96 -32 -178.5t-96 -135.5t-147 -53q-45 0 -91.5 12.5 t-85 33t-81 45.5t-80.5 50q-54 -59 -149 -90t-203 -31q-81 0 -140 40t-59 106zM150 121q0 -60 112 -60q65 0 118.5 31.5t76.5 83.5q-61 23 -119 23q-43 0 -68 -1.5t-57 -8.5t-47.5 -24t-15.5 -44z" />
<glyph unicode="&#xa4;" horiz-adv-x="1593" d="M348 168l94 80q-88 118 -88 264t88 264l-94 80q62 44 105 105l79 -95q116 88 265 88q148 0 264 -88l80 95q42 -61 104 -105l-94 -80q86 -116 86 -264t-86 -264l94 -80q-62 -44 -104 -105l-80 95q-116 -88 -264 -88q-149 0 -265 88l-79 -95q-43 61 -105 105zM477 512 q0 -132 94 -225.5t226 -93.5t224.5 93.5t92.5 225.5t-92.5 225.5t-224.5 93.5t-226 -93.5t-94 -225.5z" />
<glyph unicode="&#xa5;" horiz-adv-x="1441" d="M98 1329l17 105q15 6 37 6q31 0 95 -12.5t97 -12.5q32 0 95.5 12.5t95.5 12.5q20 0 38 -6l17 -105q-31 25 -72 25q-35 0 -35 -74q0 -208 87.5 -396t246.5 -321q130 104 213 230q135 196 135 391q0 69 -29.5 119.5t-82.5 50.5q-64 0 -121 -19l16 99q34 6 68 6 q33 0 100 -12.5t101 -12.5q69 0 129 19q0 -284 -160 -562q-66 -111 -135 -194h178v-86h-256q-67 -67 -121 -111v-94l377 2v-86h-377v-149q0 -32 25 -53t59 -21q84 0 164 24l-17 -104q-51 -6 -106 -6q-38 0 -114 12t-113 12q-38 0 -113 -12t-113 -12q-52 0 -108 6l-17 104 q81 -24 166 -24q33 0 57.5 21t24.5 53v149h-375v86h375v68q-79 54 -149 133l-226 2v86h158q-100 140 -162.5 303.5t-62.5 298.5q0 74 -37 74q-42 0 -70 -25z" />
<glyph unicode="&#xa6;" horiz-adv-x="569" d="M223 307h123v-717h-123v717zM223 717v717h123v-717h-123z" />
<glyph unicode="&#xa7;" horiz-adv-x="970" d="M63 584q0 208 109 354q-49 71 -49 154q0 153 116 259.5t277 106.5q91 0 170 -41t131 -114q-78 -76 -129 -179q19 62 4 117t-64 93t-112 38q-82 0 -141.5 -56t-59.5 -136q0 -27 9 -53t22 -46.5t37.5 -42.5t43 -36.5t52.5 -34.5t53 -30.5t56 -29.5q141 -72 230 -181.5 t89 -244.5q0 -207 -108 -354q47 -76 47 -154q0 -153 -116 -259.5t-277 -106.5q-90 0 -169.5 41t-129.5 114q81 82 129 179q-20 -62 -5 -117t64 -93t111 -38q83 0 142.5 56t59.5 136q0 38 -17.5 73t-40 60t-65.5 54t-70.5 44.5t-78.5 41.5q-141 72 -230.5 181.5t-89.5 244.5z M254 672q0 -194 270 -334q101 -52 170 -105q21 70 21 160q0 196 -269 334q-106 56 -172 104q-20 -70 -20 -159z" />
<glyph unicode="&#xa8;" horiz-adv-x="952" d="M129 1245q0 55 38.5 94t94.5 39t94.5 -39t38.5 -94t-38.5 -94t-94.5 -39t-94.5 39t-38.5 94zM557 1245q0 55 38.5 94t94.5 39t94.5 -39t38.5 -94t-38.5 -94t-94.5 -39t-94.5 39t-38.5 94z" />
<glyph unicode="&#xa9;" horiz-adv-x="1560" d="M63 717q0 145 57 278t153 229t229 153t278 57q146 0 278.5 -57t228.5 -153t153 -228.5t57 -278.5t-57 -278.5t-153 -228.5t-228.5 -153t-278.5 -57q-145 0 -278 57t-229 153t-153 229t-57 278zM150 717q0 -171 84.5 -316.5t229.5 -230t316 -84.5q128 0 245 50 t201.5 134.5t134.5 201.5t50 245t-50 245t-134.5 201.5t-201.5 134.5t-245 50q-171 0 -316 -84.5t-229.5 -230t-84.5 -316.5zM354 725q0 120 63 221t168.5 158t229.5 57q110 0 208 -45.5t167 -128.5q-96 -64 -162 -160q7 115 -71.5 199t-192.5 84t-184 -99.5t-70 -234.5 q0 -118 43 -220.5t125.5 -167t187.5 -64.5q49 0 91.5 19.5t70 47.5t48.5 61.5t31 60t13 44.5q31 -42 86 -78q-66 -97 -170 -152t-221 -55q-125 0 -231 60t-168 164.5t-62 228.5z" />
<glyph unicode="&#xaa;" horiz-adv-x="837" d="M63 1059q0 91 83 154t196 63q106 0 178 -62l-4 84q-2 45 -37 77t-86 32q-125 0 -209 -86q-17 35 -51 65q129 72 291 72q114 0 195 -42.5t77 -117.5l-16 -354q-2 -12 7.5 -21.5t23.5 -9.5q31 0 63 13l-12 -60q-24 -4 -39 -4q-19 0 -57.5 7.5t-59.5 7.5q-33 0 -90 -11 q9 14 16 43q-75 -57 -190 -57q-113 0 -196 59.5t-83 147.5zM106 760q0 10 13 17t31 7h538q19 0 31 -7t12 -17q0 -11 -12 -19t-31 -8h-538q-18 0 -31 8t-13 19zM223 1083q0 -73 52 -126.5t131 -53.5q76 0 129 55l-11 197q-60 70 -149 70q-80 0 -116 -34.5t-36 -107.5z" />
<glyph unicode="&#xab;" horiz-adv-x="1120" d="M96 481q278 211 477 506l62 -59l-299 -447l299 -446l-62 -60q-199 297 -477 506zM487 481q285 219 476 506l63 -59l-299 -447l299 -446l-63 -60q-191 289 -476 506z" />
<glyph unicode="&#xac;" horiz-adv-x="1366" d="M236 606v123h894v-547h-122v424h-772z" />
<glyph unicode="&#xad;" horiz-adv-x="645" d="M33 414l49 153h434q69 0 129 25l-49 -154h-434q-68 0 -129 -24z" />
<glyph unicode="&#xae;" horiz-adv-x="1560" d="M63 717q0 145 57 278t153 229t229 153t278 57q146 0 278.5 -57t228.5 -153t153 -228.5t57 -278.5t-57 -278.5t-153 -228.5t-228.5 -153t-278.5 -57q-145 0 -278 57t-229 153t-153 229t-57 278zM150 717q0 -171 84.5 -316.5t229.5 -230t316 -84.5q128 0 245 50 t201.5 134.5t134.5 201.5t50 245t-50 245t-134.5 201.5t-201.5 134.5t-245 50q-171 0 -316 -84.5t-229.5 -230t-84.5 -316.5zM350 1079l10 62q26 4 35 4q21 0 64 -7.5t65 -7.5q40 0 119 13.5t119 13.5q129 0 222 -84t93 -207q0 -154 -131 -223q101 -128 150 -285 q10 -28 39 -28q35 0 75 10l-10 -59q-35 -5 -41 -5q-21 0 -62 8.5t-63 8.5q-38 0 -76 -12q0 176 -159 321q-21 -2 -64 -2q-71 0 -141 12l-8 -239q-2 -18 7 -30.5t25 -12.5q36 0 64 14l-10 -63q-32 -5 -39 -5q-19 0 -55 8.5t-54 8.5t-55 -8.5t-55 -8.5q-9 0 -39 5l-10 63 q28 -14 65 -14q15 0 24 12.5t9 30.5l-23 676q0 18 -8 31.5t-22 13.5q-24 0 -60 -15zM596 678q61 -27 139 -27q105 0 147 45.5t42 155.5q0 113 -47.5 182.5t-141.5 69.5q-38 0 -61 -2t-44.5 -15t-21.5 -38z" />
<glyph unicode="&#xaf;" horiz-adv-x="952" d="M156 1178v86h641v-86h-641z" />
<glyph unicode="&#xb0;" horiz-adv-x="591" d="M55 1198q0 94 65 160.5t156 66.5q107 0 184 -64.5t77 -162.5q0 -94 -65 -160.5t-157 -66.5q-107 0 -183.5 64.5t-76.5 162.5zM158 1237q0 -84 52.5 -155.5t123.5 -71.5q48 0 74 44t26 105q0 84 -52.5 155.5t-123.5 71.5q-48 0 -74 -43.5t-26 -105.5z" />
<glyph unicode="&#xb1;" horiz-adv-x="1593" d="M236 -12q12 74 0 147q279 -24 561 -24q281 0 561 24q-12 -73 0 -147q-280 24 -561 24q-282 0 -561 -24zM236 561q12 73 0 148q249 -22 512 -25q-5 265 -25 512q73 -12 147 0q-21 -255 -24 -512q264 3 512 25q-12 -75 0 -148q-269 22 -512 25q0 -178 12 -353h-123 q8 154 13 353q-242 -3 -512 -25z" />
<glyph unicode="&#xb2;" horiz-adv-x="671" d="M23 877l374 421q31 35 31 168q0 51 -25 89t-67 38q-49 0 -82 -37.5t-33 -89.5q0 -50 41 -69q-82 -60 -133 -142q-72 53 -72 140q0 112 82 190t197 78q114 0 196 -78t82 -190q0 -123 -110 -219l-352 -306q28 2 88 2q30 0 92 -4t94 -4q62 0 108 25.5t46 71.5h69 q-35 -76 -35 -164q-79 -17 -153 -17q-43 0 -128 11.5t-128 11.5q-81 0 -148 -15z" />
<glyph unicode="&#xb3;" horiz-adv-x="671" d="M25 961q67 27 131 83q0 -82 55.5 -141t134.5 -59q115 0 115 231q0 75 -36.5 130t-96.5 55q-53 0 -107 -23l-49 51l285 268q-40 0 -119.5 4.5t-118.5 4.5q-40 0 -68.5 -31t-44.5 -78l-65 21l55 172q59 0 174.5 -11.5t173.5 -11.5q75 0 144 23l35 -105l-295 -213 q129 0 224 -72t95 -184q0 -125 -88.5 -213t-212.5 -88q-98 0 -184.5 50.5t-136.5 136.5z" />
<glyph unicode="&#xb4;" horiz-adv-x="952" d="M360 1139q87 31 136 113t49 182q108 -20 217 0q0 -69 -31 -129t-85.5 -105.5t-117 -79.5t-137.5 -61z" />
<glyph unicode="&#xb5;" horiz-adv-x="1263" d="M0 -410q103 360 82 732l-35 641q135 -25 270 0l-34 -641q-5 -93 47 -162.5t135 -69.5q87 0 156.5 52t99.5 134l-31 558q0 19 -10.5 34t-28.5 15q-43 0 -80 -19l17 99q30 6 59 6q31 0 90 -12.5t88 -12.5q85 0 160 19q-18 -60 -24 -129l-35 -641q-2 -54 17 -93t58 -39 q40 0 86.5 28t65.5 63l47 -37q-57 -74 -124 -107t-161 -33q-65 0 -113.5 45.5t-66.5 114.5q-64 -75 -157 -117.5t-199 -42.5q-49 0 -96 19v-404q-142 25 -283 0z" />
<glyph unicode="&#xb6;" horiz-adv-x="1251" d="M94 997q0 124 76 222.5t197 150t260 51.5h553v-123h-119q-23 -322 -23 -798q0 -526 31 -897q-75 12 -147 0q11 137 17 299t7.5 299t3.5 299q5 177 2 399.5t-20 398.5h-240q-22 -325 -22 -798q0 -523 30 -897q-75 12 -147 0q12 138 18 299t7.5 299t3.5 299v75 q-131 9 -241 62t-178.5 148t-68.5 212z" />
<glyph unicode="&#xb7;" horiz-adv-x="569" d="M137 512q0 61 43 104t105 43q61 0 104 -42.5t43 -104.5t-43 -104.5t-104 -42.5q-62 0 -105 43t-43 104z" />
<glyph unicode="&#xb8;" horiz-adv-x="952" d="M190 -307l58 57q65 -74 164 -74q46 0 77 38t31 89q0 97 -35 148.5t-127 85.5h129q95 -66 150 -133t55 -150q0 -71 -59.5 -117.5t-140.5 -46.5q-172 0 -302 103z" />
<glyph unicode="&#xb9;" horiz-adv-x="671" d="M96 1352q135 120 166 297q91 -17 184 0l-28 -750q0 -20 15.5 -32.5t37.5 -12.5q50 0 104 16l-10 -82q-44 -4 -69 -4q-27 0 -79.5 10.5t-78.5 10.5t-80 -10.5t-80 -10.5q-23 0 -67 4l-11 82q53 -16 105 -16q21 0 36.5 13t14.5 32l-23 481l-88 -82z" />
<glyph unicode="&#xba;" horiz-adv-x="841" d="M63 1155q0 124 94.5 213.5t233.5 89.5q159 0 274 -88t115 -215q0 -124 -94 -213.5t-233 -89.5q-160 0 -275 87.5t-115 215.5zM106 760q0 10 13 17t31 7h544q18 0 30.5 -7t12.5 -17q0 -11 -13 -19t-30 -8h-544q-18 0 -31 8t-13 19zM229 1206q0 -71 25 -139t78 -116 t121 -48q161 0 161 201q0 71 -25 138.5t-77.5 116t-120.5 48.5q-162 0 -162 -201z" />
<glyph unicode="&#xbb;" horiz-adv-x="1120" d="M94 35l299 446l-299 447l64 59q192 -288 477 -506q-285 -216 -477 -506zM485 35l299 446l-299 447l64 59q194 -291 475 -506q-281 -213 -475 -506z" />
<glyph unicode="&#xbc;" horiz-adv-x="1495" d="M39 1147q133 118 166 297q90 -15 184 0l-29 -750q0 -19 16 -32t38 -13q50 0 104 17l-10 -82q-46 -4 -70 -4q-26 0 -78 10t-79 10t-80.5 -10t-79.5 -10q-22 0 -68 4l-10 82q51 -17 104 -17q21 0 37 13t15 32l-23 482l-88 -82zM426 0l635 1434h94l-635 -1434h-94zM831 266 q128 116 205 270t92 324q85 -15 168 0q-97 -342 -333 -594q71 -11 194 8l-6 123q96 -15 188 0l-4 -104q41 2 123 2q-15 -52 -12 -107q-62 14 -115 17l-4 -94q-2 -18 6 -31.5t23 -13.5q28 0 57 16l-10 -82q-20 -4 -33 -4q-22 0 -63 10t-62 10t-62 -10t-61 -10q-9 0 -35 4 l-8 82q27 -16 58 -16q13 0 20.5 13.5t7.5 31.5l-6 98q-27 -2 -71 -7t-75 -8t-72 -3t-75 6z" />
<glyph unicode="&#xbd;" horiz-adv-x="1495" d="M39 1147q133 118 166 297q90 -15 184 0l-29 -750q0 -19 16 -32t38 -13q50 0 104 17l-10 -82q-46 -4 -70 -4q-26 0 -78 10t-79 10t-80.5 -10t-79.5 -10q-22 0 -68 4l-10 82q51 -17 104 -17q21 0 37 13t15 32l-23 482l-88 -82zM334 0l635 1434h94l-635 -1434h-94zM831 88 l375 422q14 16 21.5 48t8.5 55.5t1 64.5q0 51 -25 89t-67 38q-49 0 -82 -38t-33 -89q0 -50 41 -70q-81 -60 -133 -141q-34 25 -53 62t-19 77q0 113 82 190.5t197 77.5q114 0 196 -77.5t82 -190.5q0 -123 -110 -219l-352 -305q28 2 88 2q30 0 92 -4t94 -4q63 0 108.5 25 t45.5 71h69q-35 -74 -35 -164q-82 -16 -153 -16q-43 0 -128 11t-128 11q-79 0 -148 -14z" />
<glyph unicode="&#xbe;" horiz-adv-x="1605" d="M39 756q69 28 131 84q0 -82 55.5 -141.5t134.5 -59.5q115 0 115 231q0 75 -36.5 130t-96.5 55q-57 0 -106 -23l-50 51l285 269q-40 0 -119.5 4t-118.5 4q-40 0 -68.5 -31t-43.5 -78l-66 21l56 172q58 0 173.5 -11.5t174.5 -11.5q69 0 143 23l35 -105l-295 -213 q129 0 224.5 -72t95.5 -184q0 -124 -89 -212.5t-213 -88.5q-98 0 -184.5 50.5t-136.5 136.5zM553 0l635 1434h94l-635 -1434h-94zM942 266q128 116 205 270t92 324q84 -15 168 0q-100 -345 -334 -594q71 -11 195 8l-6 123q96 -15 188 0l-4 -104q41 2 123 2q-16 -55 -13 -107 q-60 14 -114 17l-4 -94q-2 -18 6 -31.5t22 -13.5q28 0 58 16l-11 -82q-20 -4 -32 -4q-21 0 -62 10t-63 10q-20 0 -61 -10t-62 -10q-11 0 -35 4l-8 82q26 -16 57 -16q14 0 21.5 13.5t7.5 31.5l-6 98q-27 -2 -71.5 -7t-75.5 -8t-71.5 -3t-74.5 6z" />
<glyph unicode="&#xbf;" horiz-adv-x="952" d="M104 -106q0 42 16 84.5t51.5 90.5t62 78t77.5 84q45 48 63 68t52.5 63t49.5 70.5t28.5 65t13.5 71.5h86q0 -45 -10 -88t-33 -90t-40.5 -77t-51.5 -83q-44 -69 -67.5 -110t-45.5 -105t-22 -122q0 -143 38 -211t146 -68q88 0 130.5 75t28 190.5t-80.5 230.5 q126 -68 270 -86q23 -74 21.5 -144.5t-33 -134.5t-78.5 -112t-115 -76.5t-143 -28.5q-187 0 -300.5 96.5t-113.5 268.5zM414 840q0 62 43 104.5t104 42.5q62 0 105 -43t43 -104q0 -62 -43.5 -105t-104.5 -43t-104 43t-43 105z" />
<glyph unicode="&#xc0;" horiz-adv-x="1492" d="M33 104q36 -24 82 -24q15 0 27.5 13t18 25t15.5 36l375 979q33 79 13.5 150t-81.5 71q-58 0 -112 -19l16 99q43 6 84 6q42 0 125 -12.5t125 -12.5q106 0 205 19q-21 -134 24 -279l330 -1001q24 -74 74 -74q56 0 108 24l-16 -104q-34 -6 -66 -6q-30 0 -90.5 12t-91.5 12 q-32 0 -93 -12t-91 -12q-32 0 -64 6l-16 104q50 -24 106 -24q23 0 33.5 23.5t1.5 50.5l-94 241h-401q-123 0 -232 -67l-61 -174q-11 -26 -5.5 -50t25.5 -24q46 0 82 24l-16 -104q-23 -6 -45 -6q-20 0 -58 12t-59 12t-59 -12t-58 -12q-24 0 -45 6zM403 481h545l-282 738z M438 1841q108 -18 217 0q0 -83 61 -146t154 -96l-28 -81q-52 19 -82.5 30t-78.5 32t-77.5 38t-64.5 42.5t-54.5 51.5t-33 59t-13.5 70z" />
<glyph unicode="&#xc1;" horiz-adv-x="1492" d="M33 104q36 -24 82 -24q15 0 27.5 13t18 25t15.5 36l375 979q33 79 13.5 150t-81.5 71q-58 0 -112 -19l16 99q43 6 84 6q42 0 125 -12.5t125 -12.5q106 0 205 19q-21 -134 24 -279l330 -1001q24 -74 74 -74q56 0 108 24l-16 -104q-34 -6 -66 -6q-30 0 -90.5 12t-91.5 12 q-32 0 -93 -12t-91 -12q-32 0 -64 6l-16 104q50 -24 106 -24q23 0 33.5 23.5t1.5 50.5l-94 241h-401q-123 0 -232 -67l-61 -174q-11 -26 -5.5 -50t25.5 -24q46 0 82 24l-16 -104q-23 -6 -45 -6q-20 0 -58 12t-59 12t-59 -12t-58 -12q-24 0 -45 6zM403 481h545l-282 738z M569 1599q94 33 155.5 96t61.5 146q108 -18 218 0q0 -37 -14 -70.5t-33 -58.5t-55.5 -51t-64.5 -42.5t-78 -38t-78 -32.5t-81 -30z" />
<glyph unicode="&#xc2;" horiz-adv-x="1492" d="M33 104q36 -24 82 -24q15 0 27.5 13t18 25t15.5 36l375 979q33 79 13.5 150t-81.5 71q-58 0 -112 -19l16 99q43 6 84 6q42 0 125 -12.5t125 -12.5q106 0 205 19q-21 -134 24 -279l330 -1001q24 -74 74 -74q56 0 108 24l-16 -104q-34 -6 -66 -6q-30 0 -90.5 12t-91.5 12 q-32 0 -93 -12t-91 -12q-32 0 -64 6l-16 104q50 -24 106 -24q23 0 33.5 23.5t1.5 50.5l-94 241h-401q-123 0 -232 -67l-61 -174q-11 -26 -5.5 -50t25.5 -24q46 0 82 24l-16 -104q-23 -6 -45 -6q-20 0 -58 12t-59 12t-59 -12t-58 -12q-24 0 -45 6zM373 1563q133 89 262 215 q84 -17 172 0q124 -124 260 -215l-45 -74q-147 93 -301 160q-151 -64 -303 -160zM403 481h545l-282 738z" />
<glyph unicode="&#xc3;" horiz-adv-x="1492" d="M33 104q36 -24 82 -24q15 0 27.5 13t18 25t15.5 36l375 979q33 79 13.5 150t-81.5 71q-58 0 -112 -19l16 99q43 6 84 6q42 0 125 -12.5t125 -12.5q106 0 205 19q-21 -134 24 -279l330 -1001q24 -74 74 -74q56 0 108 24l-16 -104q-34 -6 -66 -6q-30 0 -90.5 12t-91.5 12 q-32 0 -93 -12t-91 -12q-32 0 -64 6l-16 104q50 -24 106 -24q23 0 33.5 23.5t1.5 50.5l-94 241h-401q-123 0 -232 -67l-61 -174q-11 -26 -5.5 -50t25.5 -24q46 0 82 24l-16 -104q-23 -6 -45 -6q-20 0 -58 12t-59 12t-59 -12t-58 -12q-24 0 -45 6zM340 1595q41 50 65.5 77.5 t64 67.5t73 59.5t61.5 19.5q33 0 66.5 -19t58 -42.5t58 -42.5t65.5 -19q36 0 72 20.5t57.5 42.5t52.5 60l68 -56q-37 -44 -52 -61t-52 -56t-59 -56.5t-51 -33.5t-52 -16q-33 0 -67 19t-58 42.5t-57.5 42.5t-65.5 19q-28 0 -53.5 -10t-49.5 -30.5t-39.5 -37t-39.5 -45.5z M403 481h545l-282 738z" />
<glyph unicode="&#xc4;" horiz-adv-x="1492" d="M33 104q36 -24 82 -24q15 0 27.5 13t18 25t15.5 36l375 979q33 79 13.5 150t-81.5 71q-58 0 -112 -19l16 99q43 6 84 6q42 0 125 -12.5t125 -12.5q106 0 205 19q-21 -134 24 -279l330 -1001q24 -74 74 -74q56 0 108 24l-16 -104q-34 -6 -66 -6q-30 0 -90.5 12t-91.5 12 q-32 0 -93 -12t-91 -12q-32 0 -64 6l-16 104q50 -24 106 -24q23 0 33.5 23.5t1.5 50.5l-94 241h-401q-123 0 -232 -67l-61 -174q-11 -26 -5.5 -50t25.5 -24q46 0 82 24l-16 -104q-23 -6 -45 -6q-20 0 -58 12t-59 12t-59 -12t-58 -12q-24 0 -45 6zM342 1679q0 55 39 94t94 39 t94 -39t39 -94t-39 -94t-94 -39t-94 39t-39 94zM403 481h545l-282 738zM831 1679q0 55 39 94t95 39q55 0 94 -39t39 -94t-39 -94t-94 -39t-94.5 39t-39.5 94z" />
<glyph unicode="&#xc5;" horiz-adv-x="1492" d="M33 104q36 -24 82 -24q15 0 27.5 13t18 25t15.5 36l375 979q33 79 13.5 150t-81.5 71q-58 0 -112 -19l16 99q43 6 84 6q42 0 125 -12.5t125 -12.5q106 0 205 19q-21 -134 24 -279l330 -1001q24 -74 74 -74q56 0 108 24l-16 -104q-34 -6 -66 -6q-30 0 -90.5 12t-91.5 12 q-32 0 -93 -12t-91 -12q-32 0 -64 6l-16 104q50 -24 106 -24q23 0 33.5 23.5t1.5 50.5l-94 241h-401q-123 0 -232 -67l-61 -174q-11 -26 -5.5 -50t25.5 -24q46 0 82 24l-16 -104q-23 -6 -45 -6q-20 0 -58 12t-59 12t-59 -12t-58 -12q-24 0 -45 6zM403 481h545l-282 738z M516 1669q0 85 60 145t145 60q83 0 143 -60.5t60 -144.5t-60 -143.5t-143 -59.5q-85 0 -145 59t-60 144zM602 1669q0 -49 34.5 -83t84.5 -34q48 0 82.5 34.5t34.5 82.5q0 49 -34.5 84t-82.5 35q-49 0 -84 -35t-35 -84z" />
<glyph unicode="&#xc6;" horiz-adv-x="2205" d="M0 104q38 -24 82 -24q14 0 25.5 5.5t23 19.5t16.5 22t17 27l659 1200h-157q-55 0 -101 -25l17 105q30 6 59 6q93 0 278.5 -12.5t278.5 -12.5q101 0 299 21.5t297 21.5q118 0 227 -24q-12 -32 -12 -62q0 -125 37 -239q-79 -33 -143 -86q24 60 24 129q0 93 -87 144.5 t-208 51.5q-44 0 -68 -0.5t-64.5 -3t-63.5 -8.5t-48.5 -15.5t-37.5 -26t-13 -38.5l-14 -492l307 13q89 3 164 37q-40 -85 -49 -185q-79 49 -178 49h-248l-19 -548q0 -17 7.5 -30.5t25 -23t35 -16.5t48.5 -11.5t53 -7t60 -3.5t59 -1h61q141 0 244.5 79.5t103.5 203.5 q0 64 -12 129q78 -57 172 -86q-99 -172 -99 -362q-139 -50 -286 -50q-95 0 -286 21.5t-288 21.5q-30 0 -91 -12t-91 -12q-32 0 -66 6l-16 104q52 -24 108 -24q25 0 40.5 22.5t13.5 51.5l-9 241h-462q-136 0 -256 -67l-95 -174q-7 -14 -11 -26.5t-5.5 -23.5t3 -17.5 t13.5 -6.5q46 0 82 24l-16 -104q-21 -6 -45 -6q-21 0 -59 12t-58 12t-58 -12t-59 -12q-23 0 -45 6zM451 481h634l-26 799q0 30 -13 52t-36 22h-88z" />
<glyph unicode="&#xc7;" horiz-adv-x="1544" d="M63 729q0 201 104.5 369t280.5 264t381 96q182 0 346 -76t281 -215q-163 -112 -272 -266q9 125 -48 233.5t-162 173t-231 64.5t-224 -80t-147.5 -205.5t-49.5 -271.5q0 -116 26.5 -227.5t78.5 -206.5t123 -166.5t165.5 -112.5t199.5 -41q82 0 153.5 32.5t117 79t80.5 103 t51 100.5t20 75q61 -82 144 -129q-90 -133 -224 -219.5t-290 -114.5q65 -55 102 -111.5t37 -122.5q0 -72 -60 -118t-143 -46q-171 0 -301 103l57 57q65 -74 164 -74q47 0 79 38t32 89q0 40 -8 84q-21 82 -160 90q-145 11 -274.5 75t-224 163.5t-149.5 233.5t-55 280z" />
<glyph unicode="&#xc8;" horiz-adv-x="1392" d="M96 1329l17 105q27 6 59 6q36 0 106.5 -12.5t106.5 -12.5q99 0 297 21.5t299 21.5q115 0 227 -24q-12 -32 -12 -62q0 -125 37 -239q-76 -30 -143 -86q24 60 24 129q0 63 -43.5 108.5t-109 66.5t-142.5 21h-58.5t-56.5 -2t-56.5 -5.5t-47 -10t-41 -16t-25 -24.5t-10.5 -34 l-16 -492l307 13q88 3 166 37q-43 -86 -49 -185q-82 49 -178 49h-248l-19 -548q0 -17 7.5 -30.5t25 -23t35 -16.5t48.5 -11.5t53 -7t60 -3.5t59 -1h61q141 0 244.5 79.5t103.5 203.5q0 67 -13 129q74 -55 172 -86q-98 -173 -98 -362q-139 -50 -287 -50q-96 0 -286 21.5 t-287 21.5q-31 0 -91 -12t-91 -12q-35 0 -66 6l-16 104q49 -24 108 -24q24 0 40 22.5t14 51.5l-37 1126q-2 31 -14.5 52.5t-34.5 21.5q-55 0 -101 -25zM438 1841q108 -18 217 0q0 -83 61 -146t154 -96l-28 -81q-52 19 -82.5 30t-78.5 32t-77.5 38t-64.5 42.5t-54.5 51.5 t-33 59t-13.5 70z" />
<glyph unicode="&#xc9;" horiz-adv-x="1392" d="M96 1329l17 105q27 6 59 6q36 0 106.5 -12.5t106.5 -12.5q99 0 297 21.5t299 21.5q115 0 227 -24q-12 -32 -12 -62q0 -125 37 -239q-76 -30 -143 -86q24 60 24 129q0 63 -43.5 108.5t-109 66.5t-142.5 21h-58.5t-56.5 -2t-56.5 -5.5t-47 -10t-41 -16t-25 -24.5t-10.5 -34 l-16 -492l307 13q88 3 166 37q-43 -86 -49 -185q-82 49 -178 49h-248l-19 -548q0 -17 7.5 -30.5t25 -23t35 -16.5t48.5 -11.5t53 -7t60 -3.5t59 -1h61q141 0 244.5 79.5t103.5 203.5q0 67 -13 129q74 -55 172 -86q-98 -173 -98 -362q-139 -50 -287 -50q-96 0 -286 21.5 t-287 21.5q-31 0 -91 -12t-91 -12q-35 0 -66 6l-16 104q49 -24 108 -24q24 0 40 22.5t14 51.5l-37 1126q-2 31 -14.5 52.5t-34.5 21.5q-55 0 -101 -25zM569 1599q94 33 155.5 96t61.5 146q108 -18 218 0q0 -37 -14 -70.5t-33 -58.5t-55.5 -51t-64.5 -42.5t-78 -38t-78 -32.5 t-81 -30z" />
<glyph unicode="&#xca;" horiz-adv-x="1392" d="M96 1329l17 105q27 6 59 6q36 0 106.5 -12.5t106.5 -12.5q99 0 297 21.5t299 21.5q115 0 227 -24q-12 -32 -12 -62q0 -125 37 -239q-76 -30 -143 -86q24 60 24 129q0 63 -43.5 108.5t-109 66.5t-142.5 21h-58.5t-56.5 -2t-56.5 -5.5t-47 -10t-41 -16t-25 -24.5t-10.5 -34 l-16 -492l307 13q88 3 166 37q-43 -86 -49 -185q-82 49 -178 49h-248l-19 -548q0 -17 7.5 -30.5t25 -23t35 -16.5t48.5 -11.5t53 -7t60 -3.5t59 -1h61q141 0 244.5 79.5t103.5 203.5q0 67 -13 129q74 -55 172 -86q-98 -173 -98 -362q-139 -50 -287 -50q-96 0 -286 21.5 t-287 21.5q-31 0 -91 -12t-91 -12q-35 0 -66 6l-16 104q49 -24 108 -24q24 0 40 22.5t14 51.5l-37 1126q-2 31 -14.5 52.5t-34.5 21.5q-55 0 -101 -25zM373 1563q133 89 262 215q84 -17 172 0q124 -124 260 -215l-45 -74q-147 93 -301 160q-151 -64 -303 -160z" />
<glyph unicode="&#xcb;" horiz-adv-x="1392" d="M96 1329l17 105q27 6 59 6q36 0 106.5 -12.5t106.5 -12.5q99 0 297 21.5t299 21.5q115 0 227 -24q-12 -32 -12 -62q0 -125 37 -239q-76 -30 -143 -86q24 60 24 129q0 63 -43.5 108.5t-109 66.5t-142.5 21h-58.5t-56.5 -2t-56.5 -5.5t-47 -10t-41 -16t-25 -24.5t-10.5 -34 l-16 -492l307 13q88 3 166 37q-43 -86 -49 -185q-82 49 -178 49h-248l-19 -548q0 -17 7.5 -30.5t25 -23t35 -16.5t48.5 -11.5t53 -7t60 -3.5t59 -1h61q141 0 244.5 79.5t103.5 203.5q0 67 -13 129q74 -55 172 -86q-98 -173 -98 -362q-139 -50 -287 -50q-96 0 -286 21.5 t-287 21.5q-31 0 -91 -12t-91 -12q-35 0 -66 6l-16 104q49 -24 108 -24q24 0 40 22.5t14 51.5l-37 1126q-2 31 -14.5 52.5t-34.5 21.5q-55 0 -101 -25zM342 1679q0 55 39 94t94 39t94 -39t39 -94t-39 -94t-94 -39t-94 39t-39 94zM831 1679q0 55 39 94t95 39q55 0 94 -39 t39 -94t-39 -94t-94 -39t-94.5 39t-39.5 94z" />
<glyph unicode="&#xcc;" horiz-adv-x="770" d="M96 1329l17 105q27 6 59 6q36 0 106.5 -12.5t106.5 -12.5t106.5 12.5t106.5 12.5q32 0 59 -6l17 -105q-46 25 -101 25q-22 0 -34.5 -21.5t-14.5 -52.5l-37 -1126q-2 -29 14 -51.5t40 -22.5q59 0 108 24l-16 -104q-31 -6 -66 -6q-31 0 -91 12t-91 12t-91 -12t-91 -12 q-35 0 -66 6l-16 104q49 -24 108 -24q24 0 40 22.5t14 51.5l-37 1126q-2 31 -14.5 52.5t-34.5 21.5q-55 0 -101 -25zM104 1841q108 -18 218 0q0 -83 61 -146t154 -96l-29 -81q-52 19 -82 30t-78.5 32t-77.5 38t-64.5 43t-55 51t-33 58.5t-13.5 70.5z" />
<glyph unicode="&#xcd;" horiz-adv-x="770" d="M96 1329l17 105q27 6 59 6q36 0 106.5 -12.5t106.5 -12.5t106.5 12.5t106.5 12.5q32 0 59 -6l17 -105q-46 25 -101 25q-22 0 -34.5 -21.5t-14.5 -52.5l-37 -1126q-2 -29 14 -51.5t40 -22.5q59 0 108 24l-16 -104q-31 -6 -66 -6q-31 0 -91 12t-91 12t-91 -12t-91 -12 q-35 0 -66 6l-16 104q49 -24 108 -24q24 0 40 22.5t14 51.5l-37 1126q-2 31 -14.5 52.5t-34.5 21.5q-55 0 -101 -25zM233 1599q94 34 156 96.5t62 145.5q106 -18 217 0q0 -37 -13.5 -70.5t-33 -58.5t-55.5 -51t-64.5 -43t-77.5 -38t-78 -32t-82 -30z" />
<glyph unicode="&#xce;" horiz-adv-x="770" d="M39 1563q133 89 262 215q84 -17 172 0q124 -124 260 -215l-45 -74q-150 95 -301 160q-154 -65 -303 -160zM96 1329l17 105q27 6 59 6q36 0 106.5 -12.5t106.5 -12.5t106.5 12.5t106.5 12.5q32 0 59 -6l17 -105q-46 25 -101 25q-22 0 -34.5 -21.5t-14.5 -52.5l-37 -1126 q-2 -29 14 -51.5t40 -22.5q59 0 108 24l-16 -104q-31 -6 -66 -6q-31 0 -91 12t-91 12t-91 -12t-91 -12q-35 0 -66 6l-16 104q49 -24 108 -24q24 0 40 22.5t14 51.5l-37 1126q-2 31 -14.5 52.5t-34.5 21.5q-55 0 -101 -25z" />
<glyph unicode="&#xcf;" horiz-adv-x="770" d="M8 1679q0 55 39 94t94 39t94 -39t39 -94t-39 -94t-94 -39t-94 39t-39 94zM96 1329l17 105q27 6 59 6q36 0 106.5 -12.5t106.5 -12.5t106.5 12.5t106.5 12.5q32 0 59 -6l17 -105q-46 25 -101 25q-22 0 -34.5 -21.5t-14.5 -52.5l-37 -1126q-2 -29 14 -51.5t40 -22.5 q59 0 108 24l-16 -104q-31 -6 -66 -6q-31 0 -91 12t-91 12t-91 -12t-91 -12q-35 0 -66 6l-16 104q49 -24 108 -24q24 0 40 22.5t14 51.5l-37 1126q-2 31 -14.5 52.5t-34.5 21.5q-55 0 -101 -25zM498 1679q0 55 39 94t94 39t94 -39t39 -94t-39 -94t-94 -39t-94 39t-39 94z " />
<glyph unicode="&#xd0;" horiz-adv-x="1622" d="M96 692l25 111h141l-16 477q-2 31 -14.5 52.5t-34.5 21.5q-55 0 -101 -25l17 105q27 6 59 6q36 0 106.5 -12.5t106.5 -12.5q66 0 194.5 21.5t192.5 21.5q155 0 294.5 -61.5t240.5 -165t160 -246.5t59 -299q0 -147 -60.5 -279.5t-162.5 -227t-240.5 -149.5t-290.5 -55 q-64 0 -192.5 21.5t-194.5 21.5q-31 0 -91 -12t-91 -12q-35 0 -66 6l-16 104q49 -24 108 -24q24 0 40 22.5t14 51.5l-19 561q-81 -3 -168 -23zM487 154q0 -22 10.5 -39t34.5 -26.5t46.5 -15.5t62.5 -8.5t63.5 -3t67.5 -0.5q110 0 204 52t157.5 139t99 200t35.5 234 q0 129 -49 256t-125.5 220.5t-174 151.5t-190.5 58q-41 0 -72.5 -3t-63.5 -12t-50 -28.5t-19 -48.5l-16 -477q108 3 213 24l-25 -110h-190z" />
<glyph unicode="&#xd1;" horiz-adv-x="1593" d="M96 1329l17 105q30 6 63 6q22 0 62 -12.5t61 -12.5q40 0 118 9.5t118 9.5q0 -74 20 -148.5t52.5 -137.5t81 -129.5t97 -119t109.5 -111.5q251 -238 354 -419l-10 911q-2 31 -14 52.5t-35 21.5q-54 0 -98 -25l16 105q27 6 57 6q21 0 63.5 -12.5t65.5 -12.5t65.5 12.5 t63.5 12.5q29 0 58 -6l16 -105q-46 25 -98 25q-23 0 -35 -21.5t-14 -52.5l-13 -1108q0 -97 17 -172q-102 18 -205 0q0 43 -8 86.5t-19 79.5t-34.5 78.5t-40.5 72t-52 71.5t-55 65.5t-62.5 67t-61 62t-64.5 62.5q-74 70 -117.5 113t-105 108t-106.5 127t-79 125l6 -964 q0 -31 10.5 -52.5t32.5 -21.5q48 0 84 24l-16 -104q-23 -6 -47 -6q-20 0 -58 12t-57 12t-57 -12t-58 -12q-24 0 -47 6l-16 104q36 -24 84 -24q22 0 32.5 21.5t10.5 52.5l8 1126q0 30 -14 52t-39 22q-58 0 -107 -25zM424 1595q41 50 65.5 77.5t64 67.5t73 59.5t61.5 19.5 q33 0 66.5 -19t58 -42.5t58 -42.5t65.5 -19q36 0 72 20.5t57.5 42.5t52.5 60l68 -56q-37 -44 -52 -61t-52 -56t-59 -56.5t-51 -33.5t-52 -16q-33 0 -67 19t-58 42.5t-57.5 42.5t-65.5 19q-36 0 -72.5 -21t-57 -42t-53.5 -60z" />
<glyph unicode="&#xd2;" horiz-adv-x="1736" d="M96 717q0 153 61.5 291t165.5 236t246.5 156t298.5 58t298.5 -58t246.5 -156t165.5 -236t61.5 -291q0 -204 -104.5 -375t-282 -269t-385.5 -98t-385.5 98t-282 269t-104.5 375zM354 803q0 -145 44 -279.5t120.5 -237t190.5 -164t245 -61.5q97 0 179 48t135.5 128 t83.5 182t30 212q0 145 -43.5 279t-120.5 236.5t-190.5 164t-245.5 61.5q-128 0 -227.5 -82t-150 -210.5t-50.5 -276.5zM588 1841q106 -18 217 0q0 -83 61 -146t154 -96l-29 -81q-52 19 -82 30t-78.5 32t-77.5 38t-64 43t-54.5 51t-33 58.5t-13.5 70.5z" />
<glyph unicode="&#xd3;" horiz-adv-x="1736" d="M96 717q0 153 61.5 291t165.5 236t246.5 156t298.5 58t298.5 -58t246.5 -156t165.5 -236t61.5 -291q0 -204 -104.5 -375t-282 -269t-385.5 -98t-385.5 98t-282 269t-104.5 375zM354 803q0 -145 44 -279.5t120.5 -237t190.5 -164t245 -61.5q97 0 179 48t135.5 128 t83.5 182t30 212q0 145 -43.5 279t-120.5 236.5t-190.5 164t-245.5 61.5q-128 0 -227.5 -82t-150 -210.5t-50.5 -276.5zM717 1599q93 34 155 96.5t62 145.5q107 -18 217 0q0 -37 -14 -70.5t-33 -58.5t-55 -51t-64 -42.5t-77.5 -38t-78 -32.5t-81.5 -30z" />
<glyph unicode="&#xd4;" horiz-adv-x="1736" d="M96 717q0 153 61.5 291t165.5 236t246.5 156t298.5 58t298.5 -58t246.5 -156t165.5 -236t61.5 -291q0 -204 -104.5 -375t-282 -269t-385.5 -98t-385.5 98t-282 269t-104.5 375zM354 803q0 -145 44 -279.5t120.5 -237t190.5 -164t245 -61.5q97 0 179 48t135.5 128 t83.5 182t30 212q0 145 -43.5 279t-120.5 236.5t-190.5 164t-245.5 61.5q-128 0 -227.5 -82t-150 -210.5t-50.5 -276.5zM522 1563q133 89 262 215q85 -17 172 0q124 -124 261 -215l-46 -74q-150 95 -301 160q-149 -63 -303 -160z" />
<glyph unicode="&#xd5;" horiz-adv-x="1736" d="M96 717q0 153 61.5 291t165.5 236t246.5 156t298.5 58t298.5 -58t246.5 -156t165.5 -236t61.5 -291q0 -204 -104.5 -375t-282 -269t-385.5 -98t-385.5 98t-282 269t-104.5 375zM354 803q0 -145 44 -279.5t120.5 -237t190.5 -164t245 -61.5q97 0 179 48t135.5 128 t83.5 182t30 212q0 145 -43.5 279t-120.5 236.5t-190.5 164t-245.5 61.5q-128 0 -227.5 -82t-150 -210.5t-50.5 -276.5zM489 1595q40 48 65 77t64.5 68.5t73.5 59t62 19.5q27 0 53.5 -12.5t48.5 -30.5t44 -36.5t48.5 -31t52.5 -12.5q36 0 72 20t58 42.5t53 60.5l67 -56 q-15 -18 -31.5 -37t-32.5 -37.5t-34 -37t-35 -35t-35 -30.5t-34 -24.5t-32.5 -16t-31.5 -5.5q-33 0 -66.5 19t-58 42.5t-58 42.5t-65.5 19q-28 0 -53.5 -10t-49.5 -30.5t-39.5 -37t-39.5 -45.5z" />
<glyph unicode="&#xd6;" horiz-adv-x="1736" d="M96 717q0 153 61.5 291t165.5 236t246.5 156t298.5 58t298.5 -58t246.5 -156t165.5 -236t61.5 -291q0 -204 -104.5 -375t-282 -269t-385.5 -98t-385.5 98t-282 269t-104.5 375zM354 803q0 -145 44 -279.5t120.5 -237t190.5 -164t245 -61.5q97 0 179 48t135.5 128 t83.5 182t30 212q0 145 -43.5 279t-120.5 236.5t-190.5 164t-245.5 61.5q-128 0 -227.5 -82t-150 -210.5t-50.5 -276.5zM492 1679q0 55 39 94t94 39t94 -39t39 -94t-39 -94t-94 -39t-94 39t-39 94zM981 1679q0 55 38.5 94t94.5 39t94.5 -39t38.5 -94t-39 -94t-94 -39t-94 39 t-39 94z" />
<glyph unicode="&#xd7;" horiz-adv-x="1593" d="M348 168q181 149 379 344q-198 195 -379 344q62 44 105 105q164 -201 344 -379q194 197 344 379q42 -61 104 -105q-199 -164 -379 -344q180 -180 379 -344q-62 -44 -104 -105q-150 182 -344 379q-180 -178 -344 -379q-43 61 -105 105z" />
<glyph unicode="&#xd8;" horiz-adv-x="1683" d="M49 -25q0 195 129 361q-108 177 -108 381q0 153 61.5 291t165.5 236t246.5 156t298.5 58q174 0 328 -70t262 -194q75 124 75 264q63 -12 129 0q0 -193 -131 -360q109 -178 109 -381q0 -204 -104.5 -375t-282 -269t-385.5 -98q-174 0 -328 70.5t-262 194.5 q-74 -123 -74 -265q-66 14 -129 0zM328 803q0 -147 45 -287q168 117 452 240q293 127 447 258q-79 163 -213 260.5t-303 97.5q-97 0 -179 -48t-135.5 -127.5t-83.5 -181.5t-30 -212zM412 420q78 -163 212 -261t304 -98q128 0 227.5 82.5t150 211t50.5 276.5q0 141 -45 287 q-171 -121 -453 -240q-293 -128 -446 -258z" />
<glyph unicode="&#xd9;" horiz-adv-x="1566" d="M96 1329l17 105q27 6 59 6q36 0 106.5 -12.5t106.5 -12.5t106.5 12.5t106.5 12.5q32 0 59 -6l17 -105q-46 25 -101 25q-22 0 -34.5 -21.5t-14.5 -52.5l-26 -850q-4 -152 103 -260.5t261 -108.5q151 0 257.5 108.5t105.5 260.5l-8 850q0 30 -14 52t-38 22q-54 0 -100 -25 l16 105q31 6 60 6q21 0 63 -12.5t64 -12.5t64 12.5t63 12.5q29 0 59 -6l16 -105q-44 25 -100 25q-24 0 -37.5 -22t-13.5 -52l-8 -850q-1 -215 -143.5 -335t-376.5 -120q-231 0 -371.5 119.5t-147.5 335.5l-26 850q-2 31 -14.5 52.5t-34.5 21.5q-55 0 -101 -25zM545 1841 q106 -18 217 0q0 -83 61 -146t154 -96l-29 -81q-52 19 -82 30t-78.5 32t-77.5 38t-64 43t-54.5 51t-33 58.5t-13.5 70.5z" />
<glyph unicode="&#xda;" horiz-adv-x="1566" d="M96 1329l17 105q27 6 59 6q36 0 106.5 -12.5t106.5 -12.5t106.5 12.5t106.5 12.5q32 0 59 -6l17 -105q-46 25 -101 25q-22 0 -34.5 -21.5t-14.5 -52.5l-26 -850q-4 -152 103 -260.5t261 -108.5q151 0 257.5 108.5t105.5 260.5l-8 850q0 30 -14 52t-38 22q-54 0 -100 -25 l16 105q31 6 60 6q21 0 63 -12.5t64 -12.5t64 12.5t63 12.5q29 0 59 -6l16 -105q-44 25 -100 25q-24 0 -37.5 -22t-13.5 -52l-8 -850q-1 -215 -143.5 -335t-376.5 -120q-231 0 -371.5 119.5t-147.5 335.5l-26 850q-2 31 -14.5 52.5t-34.5 21.5q-55 0 -101 -25zM676 1599 q94 33 155.5 96t61.5 146q107 -18 217 0q0 -37 -14 -70.5t-33 -58.5t-55 -51t-64 -42.5t-77.5 -38t-78 -32.5t-81.5 -30z" />
<glyph unicode="&#xdb;" horiz-adv-x="1566" d="M96 1329l17 105q27 6 59 6q36 0 106.5 -12.5t106.5 -12.5t106.5 12.5t106.5 12.5q32 0 59 -6l17 -105q-46 25 -101 25q-22 0 -34.5 -21.5t-14.5 -52.5l-26 -850q-4 -152 103 -260.5t261 -108.5q151 0 257.5 108.5t105.5 260.5l-8 850q0 30 -14 52t-38 22q-54 0 -100 -25 l16 105q31 6 60 6q21 0 63 -12.5t64 -12.5t64 12.5t63 12.5q29 0 59 -6l16 -105q-44 25 -100 25q-24 0 -37.5 -22t-13.5 -52l-8 -850q-1 -215 -143.5 -335t-376.5 -120q-231 0 -371.5 119.5t-147.5 335.5l-26 850q-2 31 -14.5 52.5t-34.5 21.5q-55 0 -101 -25zM479 1563 q133 89 262 215q85 -17 172 0q124 -124 261 -215l-46 -74q-150 95 -301 160q-149 -63 -303 -160z" />
<glyph unicode="&#xdc;" horiz-adv-x="1566" d="M96 1329l17 105q27 6 59 6q36 0 106.5 -12.5t106.5 -12.5t106.5 12.5t106.5 12.5q32 0 59 -6l17 -105q-46 25 -101 25q-22 0 -34.5 -21.5t-14.5 -52.5l-26 -850q-4 -152 103 -260.5t261 -108.5q151 0 257.5 108.5t105.5 260.5l-8 850q0 30 -14 52t-38 22q-54 0 -100 -25 l16 105q31 6 60 6q21 0 63 -12.5t64 -12.5t64 12.5t63 12.5q29 0 59 -6l16 -105q-44 25 -100 25q-24 0 -37.5 -22t-13.5 -52l-8 -850q-1 -215 -143.5 -335t-376.5 -120q-231 0 -371.5 119.5t-147.5 335.5l-26 850q-2 31 -14.5 52.5t-34.5 21.5q-55 0 -101 -25zM449 1679 q0 55 38.5 94t94.5 39q55 0 94 -39t39 -94t-39 -94t-94 -39t-94 39t-39 94zM938 1679q0 55 39 94t94 39t94 -39t39 -94t-39 -94t-94 -39t-94 39t-39 94z" />
<glyph unicode="&#xdd;" horiz-adv-x="1345" d="M49 1329l17 105q15 6 36 6q32 0 96 -12.5t97 -12.5q31 0 95 12.5t95 12.5q21 0 39 -6l17 -105q-31 25 -72 25q-35 0 -35 -74q0 -208 87.5 -396t246.5 -321q130 104 213 230q135 196 135 391q0 69 -29.5 119.5t-82.5 50.5q-64 0 -121 -19l16 99q35 6 68 6t100 -12.5 t100 -12.5q69 0 129 19q0 -286 -159 -562q-131 -227 -334 -391v-327q0 -32 25 -53t59 -21q83 0 164 24l-17 -104q-52 -6 -106 -6q-38 0 -114 12t-114 12q-37 0 -112 -12t-113 -12q-54 0 -108 6l-17 104q80 -24 166 -24q33 0 57.5 21t24.5 53v303q-113 74 -215.5 216.5 t-164.5 307t-62 299.5q0 74 -37 74q-42 0 -70 -25zM549 1599q94 33 155.5 96t61.5 146q107 -18 217 0q0 -37 -14 -70.5t-33 -58.5t-55 -51t-64 -42.5t-77.5 -38t-78 -32.5t-81.5 -30z" />
<glyph unicode="&#xde;" horiz-adv-x="1318" d="M96 1329l17 105q27 6 59 6q36 0 106.5 -12.5t106.5 -12.5t106.5 12.5t106.5 12.5q32 0 59 -6l17 -105q-46 25 -101 25q-22 0 -34.5 -21.5t-14.5 -52.5l-4 -121q63 31 139 31q148 0 277 -59.5t208 -169t79 -244.5q0 -102 -46.5 -191t-124 -150.5t-180 -96.5t-213.5 -35 q-88 0 -167 45l-5 -135q-2 -29 14 -51.5t40 -22.5q59 0 108 24l-16 -104q-31 -6 -66 -6q-31 0 -91 12t-91 12t-91 -12t-91 -12q-35 0 -66 6l-16 104q49 -24 108 -24q24 0 40 22.5t14 51.5l-37 1126q-2 31 -14.5 52.5t-34.5 21.5q-55 0 -101 -25zM496 391q70 -61 163 -61 q90 0 161 55t108 143t37 189t-37 189t-108 143t-161 55q-74 0 -143 -45z" />
<glyph unicode="&#xdf;" horiz-adv-x="1482" d="M63 852l25 135q70 -24 145 -24l-4 86q-3 71 25 155q40 118 146.5 186t236.5 68q79 0 153.5 -11.5t142 -37.5t117.5 -63t79.5 -91.5t29.5 -119.5q0 -50 -29.5 -84.5t-74 -51.5t-96 -35t-96 -34.5t-74 -51t-29.5 -83.5q0 -22 21.5 -41.5t52 -32t79 -24t86.5 -18t91 -13.5 q140 -24 234.5 -124.5t94.5 -234.5q0 -141 -111.5 -236.5t-263.5 -95.5q-122 0 -228 65t-161 175q92 24 172 82q0 -96 63 -166t154 -70q73 0 109.5 72t36.5 174q0 103 -51 183.5t-140 95.5q-53 8 -93.5 17t-86.5 26t-75.5 38t-49.5 54t-20 74q0 43 26.5 79.5t64 63.5 t75 53.5t64 63.5t26.5 80q0 104 -86.5 170.5t-206.5 66.5q-62 0 -105 -46.5t-45 -111.5l-28 -1060q0 -74 39 -74q42 0 75 24l-16 -104q-18 -6 -41 -6q-26 0 -78.5 12t-79.5 12q-26 0 -78 -12t-79 -12q-23 0 -41 6l-17 104q35 -24 76 -24q22 0 31.5 22t7.5 52l-22 723 q-86 0 -173 -25z" />
<glyph unicode="&#xe0;" horiz-adv-x="1081" d="M63 322q0 151 115 256.5t273 105.5q142 0 247 -102l-6 141q-3 73 -52.5 125.5t-119.5 52.5q-84 0 -160 -37.5t-129 -105.5q-24 61 -71 108q188 121 403 121q156 0 269.5 -71.5t109.5 -192.5l-24 -594q-2 -20 11.5 -34.5t33.5 -14.5q45 0 88 18l-17 -98q-27 -6 -55 -6 q-27 0 -81 12t-81 12q-63 0 -125 -18q15 34 21 72q-106 -97 -262 -97q-158 0 -273 100t-115 247zM285 365q0 -124 71 -214t181 -90q54 0 101 25.5t77 69.5l-13 327q-77 115 -208 115q-110 0 -159.5 -57t-49.5 -176zM291 1434q108 -20 217 0q0 -100 48.5 -182t135.5 -113 l-28 -80q-76 27 -139 61t-117.5 79.5t-85.5 105.5t-31 129z" />
<glyph unicode="&#xe1;" horiz-adv-x="1081" d="M63 322q0 151 115 256.5t273 105.5q142 0 247 -102l-6 141q-3 73 -52.5 125.5t-119.5 52.5q-84 0 -160 -37.5t-129 -105.5q-24 61 -71 108q188 121 403 121q156 0 269.5 -71.5t109.5 -192.5l-24 -594q-2 -20 11.5 -34.5t33.5 -14.5q45 0 88 18l-17 -98q-27 -6 -55 -6 q-27 0 -81 12t-81 12q-63 0 -125 -18q15 34 21 72q-106 -97 -262 -97q-158 0 -273 100t-115 247zM285 365q0 -124 71 -214t181 -90q54 0 101 25.5t77 69.5l-13 327q-77 115 -208 115q-110 0 -159.5 -57t-49.5 -176zM434 1139q87 31 135.5 113t48.5 182q109 -20 218 0 q0 -69 -31 -129t-85.5 -105.5t-117 -79.5t-137.5 -61z" />
<glyph unicode="&#xe2;" horiz-adv-x="1081" d="M63 322q0 151 115 256.5t273 105.5q142 0 247 -102l-6 141q-3 73 -52.5 125.5t-119.5 52.5q-84 0 -160 -37.5t-129 -105.5q-24 61 -71 108q188 121 403 121q156 0 269.5 -71.5t109.5 -192.5l-24 -594q-2 -20 11.5 -34.5t33.5 -14.5q45 0 88 18l-17 -98q-27 -6 -55 -6 q-27 0 -81 12t-81 12q-63 0 -125 -18q15 34 21 72q-106 -97 -262 -97q-158 0 -273 100t-115 247zM246 1090q125 142 233 319q85 -15 172 0q105 -175 232 -319l-62 -62q-119 116 -256 209q-136 -90 -258 -209zM285 365q0 -124 71 -214t181 -90q54 0 101 25.5t77 69.5l-13 327 q-77 115 -208 115q-110 0 -159.5 -57t-49.5 -176z" />
<glyph unicode="&#xe3;" horiz-adv-x="1081" d="M63 322q0 151 115 256.5t273 105.5q142 0 247 -102l-6 141q-3 73 -52.5 125.5t-119.5 52.5q-84 0 -160 -37.5t-129 -105.5q-24 61 -71 108q188 121 403 121q156 0 269.5 -71.5t109.5 -192.5l-24 -594q-2 -20 11.5 -34.5t33.5 -14.5q45 0 88 18l-17 -98q-27 -6 -55 -6 q-27 0 -81 12t-81 12q-63 0 -125 -18q15 34 21 72q-106 -97 -262 -97q-158 0 -273 100t-115 247zM248 1176q160 194 227 194q32 0 65 -24l66 -48t66 -24q40 0 73 25.5t70 70.5l68 -55q-50 -59 -79.5 -91t-75 -68t-75.5 -36q-25 0 -51.5 15t-45.5 33.5t-46 33.5t-53 15 q-40 0 -73 -25.5t-71 -71.5zM285 365q0 -124 71 -214t181 -90q54 0 101 25.5t77 69.5l-13 327q-77 115 -208 115q-110 0 -159.5 -57t-49.5 -176z" />
<glyph unicode="&#xe4;" horiz-adv-x="1081" d="M63 322q0 151 115 256.5t273 105.5q142 0 247 -102l-6 141q-3 73 -52.5 125.5t-119.5 52.5q-84 0 -160 -37.5t-129 -105.5q-24 61 -71 108q188 121 403 121q156 0 269.5 -71.5t109.5 -192.5l-24 -594q-2 -20 11.5 -34.5t33.5 -14.5q45 0 88 18l-17 -98q-27 -6 -55 -6 q-27 0 -81 12t-81 12q-63 0 -125 -18q15 34 21 72q-106 -97 -262 -97q-158 0 -273 100t-115 247zM217 1245q0 55 38.5 94t94.5 39t94.5 -39t38.5 -94t-38.5 -94t-94.5 -39t-94.5 39t-38.5 94zM285 365q0 -124 71 -214t181 -90q54 0 101 25.5t77 69.5l-13 327 q-77 115 -208 115q-110 0 -159.5 -57t-49.5 -176zM645 1245q0 55 39 94t94 39q56 0 94.5 -39t38.5 -94t-38.5 -94t-94.5 -39q-55 0 -94 39t-39 94z" />
<glyph unicode="&#xe5;" horiz-adv-x="1081" d="M63 322q0 151 115 256.5t273 105.5q142 0 247 -102l-6 141q-3 73 -52.5 125.5t-119.5 52.5q-84 0 -160 -37.5t-129 -105.5q-24 61 -71 108q188 121 403 121q156 0 269.5 -71.5t109.5 -192.5l-24 -594q-2 -20 11.5 -34.5t33.5 -14.5q45 0 88 18l-17 -98q-27 -6 -55 -6 q-27 0 -81 12t-81 12q-63 0 -125 -18q15 34 21 72q-106 -97 -262 -97q-158 0 -273 100t-115 247zM285 365q0 -124 71 -214t181 -90q54 0 101 25.5t77 69.5l-13 327q-77 115 -208 115q-110 0 -159.5 -57t-49.5 -176zM360 1231q0 83 60.5 143t144.5 60q83 0 143 -60t60 -143 q0 -85 -60 -145t-143 -60q-84 0 -144.5 60t-60.5 145zM446 1231q0 -49 35 -84t84 -35q48 0 82.5 35t34.5 84q0 47 -34.5 82t-82.5 35q-49 0 -84 -35t-35 -82z" />
<glyph unicode="&#xe6;" horiz-adv-x="1736" d="M63 322q0 151 115 256.5t273 105.5q142 0 247 -102l-6 141q-3 73 -52.5 125.5t-119.5 52.5q-84 0 -160 -37.5t-129 -105.5q-24 61 -71 108q188 121 403 121q94 0 178.5 -27.5t135.5 -78.5q133 106 305 106q132 0 245 -64t179.5 -175t66.5 -242h-672q-34 0 -56 -11 t-19 -34q28 -171 131 -285.5t254 -114.5q59 0 121.5 68.5t62.5 130.5q47 -44 107 -70q-62 -95 -152 -155t-182 -60q-197 0 -350 103v-78q-50 18 -101 18q-63 0 -125 -18q15 34 21 72q-106 -97 -262 -97q-158 0 -273 100t-115 247zM285 365q0 -124 71 -214t181 -90 q54 0 101 25.5t77 69.5l-13 327q-77 115 -208 115q-110 0 -159.5 -57t-49.5 -176zM918 592h399q32 0 54 17.5t15 41.5q-25 111 -89 180.5t-158 69.5q-100 0 -157 -90t-64 -219z" />
<glyph unicode="&#xe7;" horiz-adv-x="1040" d="M63 494q0 203 142 348t342 145q123 0 226.5 -67t154.5 -179q-126 -66 -217 -163q7 82 -15 155t-72.5 120.5t-119.5 47.5q-100 0 -155.5 -95.5t-55.5 -225.5q0 -110 44 -229t124.5 -204.5t171.5 -85.5q58 0 105 26t72.5 62.5t38.5 70t13 54.5q59 -41 115 -57 q-102 -169 -299 -225q145 -112 145 -238q0 -71 -59.5 -117.5t-140.5 -46.5q-169 0 -304 103l58 57q68 -74 164 -74q48 0 79 37.5t31 89.5q0 81 -22 125q-6 11 -38 23.5t-51 17t-67 15.5q-165 34 -287.5 186t-122.5 324z" />
<glyph unicode="&#xe8;" horiz-adv-x="1112" d="M63 481q0 137 65.5 253t179.5 184.5t249 68.5q132 0 245.5 -64t180 -175t66.5 -242h-672q-34 0 -56.5 -11t-19.5 -34q28 -171 131 -285.5t254 -114.5q59 0 121.5 68.5t62.5 130.5q47 -44 107 -70q-62 -95 -152 -155t-182 -60q-153 0 -285.5 64.5t-213.5 181.5t-81 260z M285 1434q108 -20 217 0q0 -100 48.5 -182t135.5 -113l-29 -80q-76 27 -138.5 61t-117 79.5t-85.5 105.5t-31 129zM293 592h399q32 0 54 17.5t16 41.5q-26 111 -90 180.5t-158 69.5q-67 0 -117.5 -45t-75 -113.5t-28.5 -150.5z" />
<glyph unicode="&#xe9;" horiz-adv-x="1112" d="M63 481q0 137 65.5 253t179.5 184.5t249 68.5q132 0 245.5 -64t180 -175t66.5 -242h-672q-34 0 -56.5 -11t-19.5 -34q28 -171 131 -285.5t254 -114.5q59 0 121.5 68.5t62.5 130.5q47 -44 107 -70q-62 -95 -152 -155t-182 -60q-153 0 -285.5 64.5t-213.5 181.5t-81 260z M293 592h399q32 0 54 17.5t16 41.5q-26 111 -90 180.5t-158 69.5q-67 0 -117.5 -45t-75 -113.5t-28.5 -150.5zM428 1139q87 31 135.5 113t48.5 182q109 -20 217 0q0 -69 -31 -129t-85.5 -105.5t-116.5 -79.5t-137 -61z" />
<glyph unicode="&#xea;" horiz-adv-x="1112" d="M63 481q0 137 65.5 253t179.5 184.5t249 68.5q132 0 245.5 -64t180 -175t66.5 -242h-672q-34 0 -56.5 -11t-19.5 -34q28 -171 131 -285.5t254 -114.5q59 0 121.5 68.5t62.5 130.5q47 -44 107 -70q-62 -95 -152 -155t-182 -60q-153 0 -285.5 64.5t-213.5 181.5t-81 260z M240 1090q120 136 233 319q84 -15 172 0q108 -180 232 -319l-62 -62q-119 116 -256 209q-136 -90 -258 -209zM293 592h399q32 0 54 17.5t16 41.5q-26 111 -90 180.5t-158 69.5q-67 0 -117.5 -45t-75 -113.5t-28.5 -150.5z" />
<glyph unicode="&#xeb;" horiz-adv-x="1112" d="M63 481q0 137 65.5 253t179.5 184.5t249 68.5q132 0 245.5 -64t180 -175t66.5 -242h-672q-34 0 -56.5 -11t-19.5 -34q28 -171 131 -285.5t254 -114.5q59 0 121.5 68.5t62.5 130.5q47 -44 107 -70q-62 -95 -152 -155t-182 -60q-153 0 -285.5 64.5t-213.5 181.5t-81 260z M211 1245q0 55 38.5 94t94.5 39t94.5 -39t38.5 -94t-38.5 -94t-94.5 -39t-94.5 39t-38.5 94zM293 592h399q32 0 54 17.5t16 41.5q-26 111 -90 180.5t-158 69.5q-67 0 -117.5 -45t-75 -113.5t-28.5 -150.5zM639 1245q0 55 38.5 94t94.5 39t94.5 -39t38.5 -94t-38.5 -94 t-94.5 -39t-94.5 39t-38.5 94z" />
<glyph unicode="&#xec;" horiz-adv-x="595" d="M45 1434q109 -20 217 0q0 -100 49 -182t135 -113l-28 -80q-76 27 -139 61t-117.5 79.5t-85.5 105.5t-31 129zM63 864l17 99q27 6 59 6q30 0 89.5 -12.5t88.5 -12.5q83 0 160 19q-21 -61 -24 -129l-35 -680q-2 -31 7.5 -52.5t31.5 -21.5q42 0 75 24l-16 -104 q-18 -6 -41 -6q-26 0 -78.5 12t-79.5 12t-79 -12t-78 -12q-23 0 -41 6l-17 104q34 -24 76 -24q22 0 31.5 21.5t7.5 52.5l-35 680q-2 20 -12.5 34.5t-26.5 14.5q-43 0 -80 -19z" />
<glyph unicode="&#xed;" horiz-adv-x="595" d="M63 864l17 99q27 6 59 6q30 0 89.5 -12.5t88.5 -12.5q83 0 160 19q-21 -61 -24 -129l-35 -680q-2 -31 7.5 -52.5t31.5 -21.5q42 0 75 24l-16 -104q-18 -6 -41 -6q-26 0 -78.5 12t-79.5 12t-79 -12t-78 -12q-23 0 -41 6l-17 104q34 -24 76 -24q22 0 31.5 21.5t7.5 52.5 l-35 680q-2 20 -12.5 34.5t-26.5 14.5q-43 0 -80 -19zM188 1139q87 31 136 113t49 182q108 -20 217 0q0 -69 -31 -129t-85.5 -105.5t-117 -79.5t-137.5 -61z" />
<glyph unicode="&#xee;" horiz-adv-x="595" d="M0 1090q125 142 233 319q85 -15 173 0q103 -173 231 -319l-62 -62q-118 116 -256 209q-136 -90 -258 -209zM63 864l17 99q27 6 59 6q30 0 89.5 -12.5t88.5 -12.5q83 0 160 19q-21 -61 -24 -129l-35 -680q-2 -31 7.5 -52.5t31.5 -21.5q42 0 75 24l-16 -104q-18 -6 -41 -6 q-26 0 -78.5 12t-79.5 12t-79 -12t-78 -12q-23 0 -41 6l-17 104q34 -24 76 -24q22 0 31.5 21.5t7.5 52.5l-35 680q-2 20 -12.5 34.5t-26.5 14.5q-43 0 -80 -19z" />
<glyph unicode="&#xef;" horiz-adv-x="595" d="M-29 1245q0 55 39 94t94 39q56 0 95 -39t39 -94t-39 -94t-95 -39q-55 0 -94 39t-39 94zM63 864l17 99q27 6 59 6q30 0 89.5 -12.5t88.5 -12.5q83 0 160 19q-21 -61 -24 -129l-35 -680q-2 -31 7.5 -52.5t31.5 -21.5q42 0 75 24l-16 -104q-18 -6 -41 -6q-26 0 -78.5 12 t-79.5 12t-79 -12t-78 -12q-23 0 -41 6l-17 104q34 -24 76 -24q22 0 31.5 21.5t7.5 52.5l-35 680q-2 20 -12.5 34.5t-26.5 14.5q-43 0 -80 -19zM399 1245q0 55 39 94t94 39q56 0 95 -39t39 -94t-39 -94t-95 -39q-55 0 -94 39t-39 94z" />
<glyph unicode="&#xf0;" horiz-adv-x="1120" d="M63 481q0 135 58.5 250.5t163.5 185.5t233 70q147 0 270 -67q-53 161 -151 270q-72 -53 -130.5 -81t-123.5 -28v62q99 0 219 84q-131 121 -305 121v86q218 0 399 -136q79 60 141 91.5t134 31.5v-61q-62 0 -117 -24.5t-119 -69.5q152 -134 237 -342t85 -443 q0 -134 -58.5 -250t-163 -186t-231.5 -70q-145 0 -269 66t-198 183t-74 257zM293 567q0 -87 21.5 -175t59.5 -162.5t98.5 -121.5t131.5 -47q64 0 109.5 28t69 77.5t34 105.5t10.5 123q0 87 -21 175.5t-59 163t-98 121t-131 46.5q-225 0 -225 -334z" />
<glyph unicode="&#xf1;" horiz-adv-x="1257" d="M63 864l17 99q30 6 59 6q31 0 90.5 -12.5t89.5 -12.5q83 0 160 19q-21 -61 -24 -129l-2 -7q73 74 168 117t190 43q128 0 212.5 -103.5t78.5 -242.5l-21 -487q-4 -74 37 -74q45 0 78 24l-16 -104q-22 -6 -43 -6q-27 0 -78.5 12t-77.5 12q-28 0 -79.5 -12t-78.5 -12 q-21 0 -41 6l-16 104q30 -24 76 -24q39 0 39 74l-23 487q-2 49 -6.5 83.5t-15.5 71.5t-34 56.5t-57 19.5q-88 0 -170.5 -54.5t-128.5 -137.5l-26 -526q-4 -74 37 -74q43 0 78 24l-17 -104q-21 -6 -43 -6q-26 0 -77.5 12t-78.5 12q-28 0 -79.5 -12t-77.5 -12q-23 0 -41 6 l-17 104q32 -24 76 -24q39 0 39 74l-35 680q-2 20 -12.5 34.5t-28.5 14.5q-43 0 -80 -19zM313 1176q47 56 77.5 89.5t75.5 69t75 35.5q31 0 64 -24l66 -48t66 -24q40 0 73 25.5t71 70.5l67 -55q-34 -41 -57.5 -67t-57.5 -59.5t-63 -51t-51 -17.5q-25 0 -51.5 15t-46 33.5 t-46.5 33.5t-53 15q-40 0 -72.5 -25.5t-70.5 -71.5z" />
<glyph unicode="&#xf2;" horiz-adv-x="1200" d="M111 481q0 135 58 250.5t163 185.5t233 70q144 0 267.5 -66t197.5 -183t74 -257q0 -134 -58.5 -250t-163 -186t-231.5 -70q-145 0 -269 66t-197.5 183t-73.5 257zM293 1434q109 -20 217 0q0 -100 48.5 -182t135.5 -113l-28 -80q-76 27 -139 61t-117.5 79.5t-85.5 105.5 t-31 129zM340 567q0 -87 21.5 -175t59.5 -162.5t98.5 -121.5t131.5 -47q64 0 109.5 28t69 77.5t34 105.5t10.5 123q0 87 -21 175.5t-59 163t-98 121t-131 46.5q-225 0 -225 -334z" />
<glyph unicode="&#xf3;" horiz-adv-x="1200" d="M111 481q0 135 58 250.5t163 185.5t233 70q144 0 267.5 -66t197.5 -183t74 -257q0 -134 -58.5 -250t-163 -186t-231.5 -70q-145 0 -269 66t-197.5 183t-73.5 257zM340 567q0 -87 21.5 -175t59.5 -162.5t98.5 -121.5t131.5 -47q64 0 109.5 28t69 77.5t34 105.5t10.5 123 q0 87 -21 175.5t-59 163t-98 121t-131 46.5q-225 0 -225 -334zM434 1139q87 31 135.5 113t48.5 182q109 -20 218 0q0 -69 -31 -129t-85.5 -105.5t-117 -79.5t-137.5 -61z" />
<glyph unicode="&#xf4;" horiz-adv-x="1200" d="M111 481q0 135 58 250.5t163 185.5t233 70q144 0 267.5 -66t197.5 -183t74 -257q0 -134 -58.5 -250t-163 -186t-231.5 -70q-145 0 -269 66t-197.5 183t-73.5 257zM246 1090q125 142 233 319q85 -15 172 0q105 -175 232 -319l-62 -62q-119 116 -256 209 q-136 -90 -258 -209zM340 567q0 -87 21.5 -175t59.5 -162.5t98.5 -121.5t131.5 -47q64 0 109.5 28t69 77.5t34 105.5t10.5 123q0 87 -21 175.5t-59 163t-98 121t-131 46.5q-225 0 -225 -334z" />
<glyph unicode="&#xf5;" horiz-adv-x="1200" d="M111 481q0 135 58 250.5t163 185.5t233 70q144 0 267.5 -66t197.5 -183t74 -257q0 -134 -58.5 -250t-163 -186t-231.5 -70q-145 0 -269 66t-197.5 183t-73.5 257zM248 1176q160 194 227 194q32 0 65 -24l66 -48t66 -24q40 0 73 25.5t70 70.5l68 -55q-50 -59 -79.5 -91 t-75 -68t-75.5 -36q-25 0 -51.5 15t-45.5 33.5t-46 33.5t-53 15q-40 0 -73 -25.5t-71 -71.5zM340 567q0 -87 21.5 -175t59.5 -162.5t98.5 -121.5t131.5 -47q64 0 109.5 28t69 77.5t34 105.5t10.5 123q0 87 -21 175.5t-59 163t-98 121t-131 46.5q-225 0 -225 -334z" />
<glyph unicode="&#xf6;" horiz-adv-x="1200" d="M111 481q0 135 58 250.5t163 185.5t233 70q144 0 267.5 -66t197.5 -183t74 -257q0 -134 -58.5 -250t-163 -186t-231.5 -70q-145 0 -269 66t-197.5 183t-73.5 257zM217 1245q0 55 38.5 94t94.5 39t94.5 -39t38.5 -94t-38.5 -94t-94.5 -39t-94.5 39t-38.5 94zM340 567 q0 -87 21.5 -175t59.5 -162.5t98.5 -121.5t131.5 -47q64 0 109.5 28t69 77.5t34 105.5t10.5 123q0 87 -21 175.5t-59 163t-98 121t-131 46.5q-225 0 -225 -334zM645 1245q0 55 39 94t94 39q56 0 94.5 -39t38.5 -94t-38.5 -94t-94.5 -39q-55 0 -94 39t-39 94z" />
<glyph unicode="&#xf7;" horiz-adv-x="1593" d="M236 438q12 74 0 148q274 -25 561 -25q286 0 561 25q-12 -74 0 -148q-275 25 -561 25q-287 0 -561 -25zM649 70q0 61 43 104t105 43q61 0 104 -42.5t43 -104.5t-43 -105t-104 -43t-104.5 43t-43.5 105zM649 954q0 62 43.5 105t104.5 43t104 -43t43 -105t-43 -104.5 t-104 -42.5q-62 0 -105 43t-43 104z" />
<glyph unicode="&#xf8;" horiz-adv-x="1056" d="M12 -25q0 139 92 254q-71 117 -71 252t58 250.5t163 185.5t233 70q112 0 214.5 -42.5t177.5 -117.5q41 79 41 160q63 -12 129 0q0 -136 -95 -254q72 -118 72 -252t-58 -250t-163 -186t-232 -70q-113 0 -215 42.5t-178 117.5q-39 -74 -39 -160q-66 14 -129 0zM262 567 q0 -81 21 -178q71 49 227 131q147 74 235 150q-41 104 -107 167.5t-151 63.5q-225 0 -225 -334zM313 293q42 -104 108.5 -168t151.5 -64q64 0 110 28t69.5 77.5t34 105.5t10.5 123q0 75 -21 178q-71 -49 -227 -131q-146 -73 -236 -149z" />
<glyph unicode="&#xf9;" horiz-adv-x="1216" d="M0 864l16 99q28 6 60 6q29 0 88 -12.5t90 -12.5q81 0 160 19q-22 -59 -25 -129l-24 -512q-5 -93 42 -162.5t125 -69.5q92 0 159 63.5t97 165.5l-24 515q-2 20 -12.5 34.5t-26.5 14.5q-43 0 -80 -19l17 99q27 6 59 6q29 0 89 -12.5t89 -12.5q83 0 160 19q-22 -59 -25 -129 l-35 -705q-1 -20 14.5 -34.5t37.5 -14.5q53 0 102 18l-16 -98q-29 -6 -60 -6q-29 0 -89 12t-89 12q-63 0 -125 -18q28 61 25 129l-2 33q-63 -87 -153.5 -137t-197.5 -50q-127 0 -211.5 102.5t-91.5 244.5l-24 512q-2 19 -13 34t-28 15q-41 0 -78 -19zM260 1434 q109 -20 217 0q0 -100 49 -182t136 -113l-29 -80q-76 27 -139 61t-117.5 79.5t-85.5 105.5t-31 129z" />
<glyph unicode="&#xfa;" horiz-adv-x="1216" d="M0 864l16 99q28 6 60 6q29 0 88 -12.5t90 -12.5q81 0 160 19q-22 -59 -25 -129l-24 -512q-5 -93 42 -162.5t125 -69.5q92 0 159 63.5t97 165.5l-24 515q-2 20 -12.5 34.5t-26.5 14.5q-43 0 -80 -19l17 99q27 6 59 6q29 0 89 -12.5t89 -12.5q83 0 160 19q-22 -59 -25 -129 l-35 -705q-1 -20 14.5 -34.5t37.5 -14.5q53 0 102 18l-16 -98q-29 -6 -60 -6q-29 0 -89 12t-89 12q-63 0 -125 -18q28 61 25 129l-2 33q-63 -87 -153.5 -137t-197.5 -50q-127 0 -211.5 102.5t-91.5 244.5l-24 512q-2 19 -13 34t-28 15q-41 0 -78 -19zM401 1139 q87 31 136 113t49 182q108 -20 217 0q0 -69 -31 -129t-85.5 -105.5t-117 -79.5t-137.5 -61z" />
<glyph unicode="&#xfb;" horiz-adv-x="1216" d="M0 864l16 99q28 6 60 6q29 0 88 -12.5t90 -12.5q81 0 160 19q-22 -59 -25 -129l-24 -512q-5 -93 42 -162.5t125 -69.5q92 0 159 63.5t97 165.5l-24 515q-2 20 -12.5 34.5t-26.5 14.5q-43 0 -80 -19l17 99q27 6 59 6q29 0 89 -12.5t89 -12.5q83 0 160 19q-22 -59 -25 -129 l-35 -705q-1 -20 14.5 -34.5t37.5 -14.5q53 0 102 18l-16 -98q-29 -6 -60 -6q-29 0 -89 12t-89 12q-63 0 -125 -18q28 61 25 129l-2 33q-63 -87 -153.5 -137t-197.5 -50q-127 0 -211.5 102.5t-91.5 244.5l-24 512q-2 19 -13 34t-28 15q-41 0 -78 -19zM213 1090 q125 142 233 319q85 -15 172 0q105 -175 232 -319l-62 -62q-118 116 -256 209q-136 -90 -258 -209z" />
<glyph unicode="&#xfc;" horiz-adv-x="1216" d="M0 864l16 99q28 6 60 6q29 0 88 -12.5t90 -12.5q81 0 160 19q-22 -59 -25 -129l-24 -512q-5 -93 42 -162.5t125 -69.5q92 0 159 63.5t97 165.5l-24 515q-2 20 -12.5 34.5t-26.5 14.5q-43 0 -80 -19l17 99q27 6 59 6q29 0 89 -12.5t89 -12.5q83 0 160 19q-22 -59 -25 -129 l-35 -705q-1 -20 14.5 -34.5t37.5 -14.5q53 0 102 18l-16 -98q-29 -6 -60 -6q-29 0 -89 12t-89 12q-63 0 -125 -18q28 61 25 129l-2 33q-63 -87 -153.5 -137t-197.5 -50q-127 0 -211.5 102.5t-91.5 244.5l-24 512q-2 19 -13 34t-28 15q-41 0 -78 -19zM184 1245q0 55 39 94 t94 39q56 0 95 -39t39 -94t-39 -94t-95 -39q-55 0 -94 39t-39 94zM612 1245q0 55 39 94t94 39q56 0 95 -39t39 -94t-39 -94t-95 -39q-55 0 -94 39t-39 94z" />
<glyph unicode="&#xfd;" horiz-adv-x="1112" d="M33 858l16 105q18 6 37 6q30 0 92 -12.5t94 -12.5t94 12.5t93 12.5q17 0 37 -6l16 -105q-31 25 -70 25q-34 0 -34 -74q0 -236 86 -391q24 -46 82 -129.5t81 -126.5q121 187 166 344q41 140 41 328q0 20 -13.5 34.5t-33.5 14.5q-64 0 -121 -19l17 99q30 6 59 6 q31 0 90.5 -12.5t89.5 -12.5q51 0 99 19q0 -128 -31.5 -256t-93.5 -254t-123.5 -226t-151.5 -227q-37 -53 -68 -91.5t-73.5 -81.5t-83.5 -70.5t-92.5 -45.5t-104.5 -18q-74 0 -128 49.5t-54 120.5q0 104 62.5 186.5t162.5 110.5q0 -30 17 -62q-57 -24 -92 -76.5t-35 -115.5 q0 -37 32.5 -60.5t77.5 -23.5q133 0 260 162q-30 68 -89 142.5t-122.5 151t-97.5 140.5q-86 157 -86 391q0 74 -35 74q-38 0 -69 -25zM449 1139q86 31 135 113t49 182q109 -20 217 0q0 -69 -31 -129t-85.5 -105.5t-117 -79.5t-137.5 -61z" />
<glyph unicode="&#xfe;" horiz-adv-x="1187" d="M63 1335l17 99q27 6 59 6q30 0 88.5 -12.5t89.5 -12.5q83 0 160 19q-24 -62 -24 -129l-11 -418q92 100 217 100q129 0 236.5 -69.5t168 -185.5t60.5 -251q0 -132 -49.5 -247t-144 -187t-213.5 -72q-167 0 -291 117l-8 -373q-1 -19 14 -34t37 -15q55 0 102 19l-16 -99 q-30 -6 -59 -6q-31 0 -90 12.5t-89 12.5q-66 0 -124 -19q24 62 24 129l-35 1586q-2 20 -12.5 34.5t-28.5 14.5q-41 0 -78 -19zM428 217q38 -71 103 -113.5t143 -42.5q71 0 122.5 50t75 124t23.5 160q0 82 -23.5 166t-64.5 153.5t-102.5 113.5t-131.5 44q-86 0 -133 -69z" />
<glyph unicode="&#xff;" horiz-adv-x="1112" d="M33 858l16 105q18 6 37 6q30 0 92 -12.5t94 -12.5t94 12.5t93 12.5q17 0 37 -6l16 -105q-31 25 -70 25q-34 0 -34 -74q0 -236 86 -391q24 -46 82 -129.5t81 -126.5q121 187 166 344q41 140 41 328q0 20 -13.5 34.5t-33.5 14.5q-64 0 -121 -19l17 99q30 6 59 6 q31 0 90.5 -12.5t89.5 -12.5q51 0 99 19q0 -128 -31.5 -256t-93.5 -254t-123.5 -226t-151.5 -227q-37 -53 -68 -91.5t-73.5 -81.5t-83.5 -70.5t-92.5 -45.5t-104.5 -18q-74 0 -128 49.5t-54 120.5q0 104 62.5 186.5t162.5 110.5q0 -30 17 -62q-57 -24 -92 -76.5t-35 -115.5 q0 -37 32.5 -60.5t77.5 -23.5q133 0 260 162q-30 68 -89 142.5t-122.5 151t-97.5 140.5q-86 157 -86 391q0 74 -35 74q-38 0 -69 -25zM231 1245q0 55 39 94t95 39q55 0 94 -39t39 -94t-39 -94t-94 -39q-56 0 -95 39t-39 94zM659 1245q0 55 39 94t95 39q55 0 94 -39t39 -94 t-39 -94t-94 -39q-56 0 -95 39t-39 94z" />
<glyph unicode="&#x152;" horiz-adv-x="2258" d="M96 717q0 153 61.5 291t165.5 236t246.5 156t298.5 58q64 0 191.5 -21.5t193.5 -21.5q100 0 297.5 21.5t296.5 21.5q116 0 230 -24q-13 -30 -13 -62q0 -120 37 -239q-80 -32 -145 -86q24 60 24 129q0 63 -43 108.5t-108.5 66.5t-142.5 21q-45 0 -68.5 -0.5t-64.5 -3 t-63.5 -8.5t-47.5 -15.5t-37 -26t-12 -38.5l-17 -492l307 13q89 3 164 37q-40 -89 -49 -185q-79 49 -176 49h-250l-16 -548q-1 -17 6.5 -30.5t25 -23t34.5 -16.5t48 -11.5t53 -7t60.5 -3.5t59.5 -1h61q91 0 170 34.5t128.5 100.5t49.5 148q0 43 -12 129q75 -57 172 -86 q-98 -165 -98 -362q-141 -50 -287 -50q-97 0 -288 21.5t-286 21.5q-66 0 -193.5 -21.5t-191.5 -21.5q-208 0 -385.5 98t-282 269t-104.5 375zM354 803q0 -145 44 -279.5t120.5 -237t190.5 -164t245 -61.5q40 0 71.5 3.5t62.5 13t47.5 28.5t15.5 48l-37 1126 q-1 22 -14.5 38.5t-42 26t-54.5 15.5t-72 8.5t-72.5 3t-76.5 0.5q-128 0 -227.5 -82t-150 -210.5t-50.5 -276.5z" />
<glyph unicode="&#x153;" horiz-adv-x="1812" d="M63 481q0 135 58.5 250.5t163.5 185.5t233 70q111 0 211 -40t174 -113q69 72 160.5 112.5t193.5 40.5q133 0 246 -64t179.5 -175t66.5 -242h-672q-34 0 -56.5 -11t-19.5 -34q28 -171 131.5 -285.5t253.5 -114.5q59 0 122 68.5t63 130.5q48 -45 106 -70q-62 -95 -152 -155 t-182 -60q-116 0 -224.5 40.5t-190.5 111.5q-62 -71 -146 -111.5t-178 -40.5q-145 0 -269 66t-198 183t-74 257zM293 567q0 -87 21.5 -175t59.5 -162.5t98.5 -121.5t131.5 -47q173 0 213 207q-53 97 -53 213q0 83 24 156q-40 117 -109 190.5t-161 73.5q-225 0 -225 -334z M993 592h400q32 0 53.5 17.5t15.5 41.5q-25 111 -89 180.5t-159 69.5q-67 0 -117.5 -45t-75 -113.5t-28.5 -150.5z" />
<glyph unicode="&#x178;" horiz-adv-x="1345" d="M49 1329l17 105q15 6 36 6q32 0 96 -12.5t97 -12.5q31 0 95 12.5t95 12.5q21 0 39 -6l17 -105q-31 25 -72 25q-35 0 -35 -74q0 -208 87.5 -396t246.5 -321q130 104 213 230q135 196 135 391q0 69 -29.5 119.5t-82.5 50.5q-64 0 -121 -19l16 99q35 6 68 6t100 -12.5 t100 -12.5q69 0 129 19q0 -286 -159 -562q-131 -227 -334 -391v-327q0 -32 25 -53t59 -21q83 0 164 24l-17 -104q-52 -6 -106 -6q-38 0 -114 12t-114 12q-37 0 -112 -12t-113 -12q-54 0 -108 6l-17 104q80 -24 166 -24q33 0 57.5 21t24.5 53v303q-113 74 -215.5 216.5 t-164.5 307t-62 299.5q0 74 -37 74q-42 0 -70 -25zM324 1679q0 55 39 94t94 39t94 -39t39 -94t-39 -94t-94 -39t-94 39t-39 94zM813 1679q0 55 38.5 94t94.5 39t94.5 -39t38.5 -94t-39 -94t-94 -39t-94 39t-39 94z" />
<glyph unicode="&#x2c6;" horiz-adv-x="952" d="M158 1090q125 142 233 319q84 -15 172 0q105 -175 232 -319l-62 -62q-119 116 -256 209q-136 -90 -258 -209z" />
<glyph unicode="&#x2dc;" horiz-adv-x="952" d="M160 1176q160 194 227 194q32 0 65 -24l66 -48t66 -24q40 0 73 25.5t70 70.5l68 -55q-50 -59 -79.5 -91t-75 -68t-75.5 -36q-38 0 -97.5 48.5t-98.5 48.5q-40 0 -73 -25.5t-71 -71.5z" />
<glyph unicode="&#x2000;" horiz-adv-x="937" />
<glyph unicode="&#x2001;" horiz-adv-x="1874" />
<glyph unicode="&#x2002;" horiz-adv-x="937" />
<glyph unicode="&#x2003;" horiz-adv-x="1874" />
<glyph unicode="&#x2004;" horiz-adv-x="624" />
<glyph unicode="&#x2005;" horiz-adv-x="468" />
<glyph unicode="&#x2006;" horiz-adv-x="312" />
<glyph unicode="&#x2007;" horiz-adv-x="312" />
<glyph unicode="&#x2008;" horiz-adv-x="234" />
<glyph unicode="&#x2009;" horiz-adv-x="374" />
<glyph unicode="&#x200a;" horiz-adv-x="104" />
<glyph unicode="&#x2010;" horiz-adv-x="645" d="M33 414l49 153h434q69 0 129 25l-49 -154h-434q-68 0 -129 -24z" />
<glyph unicode="&#x2011;" horiz-adv-x="645" d="M33 414l49 153h434q69 0 129 25l-49 -154h-434q-68 0 -129 -24z" />
<glyph unicode="&#x2012;" horiz-adv-x="645" d="M33 414l49 153h434q69 0 129 25l-49 -154h-434q-68 0 -129 -24z" />
<glyph unicode="&#x2013;" horiz-adv-x="1024" d="M0 420l49 147h746q117 0 229 25l-49 -148h-746q-115 0 -229 -24z" />
<glyph unicode="&#x2014;" horiz-adv-x="2048" d="M0 420l49 147h1770q117 0 229 25l-49 -148h-1770q-115 0 -229 -24z" />
<glyph unicode="&#x2018;" horiz-adv-x="444" d="M63 963q0 157 68 291.5t195 207.5l86 -43q-45 -38 -73.5 -89.5t-40 -119t-14.5 -117.5t-3 -130q-109 18 -218 0z" />
<glyph unicode="&#x2019;" horiz-adv-x="411" d="M0 977q45 38 73.5 89.5t40 119t14.5 118t3 130.5q109 -20 217 0q0 -158 -67.5 -292.5t-194.5 -207.5z" />
<glyph unicode="&#x201a;" horiz-adv-x="344" d="M-68 -162q45 38 73.5 89.5t40 119t14.5 118t3 130.5q109 -18 218 0q0 -158 -68 -292t-195 -208z" />
<glyph unicode="&#x201c;" horiz-adv-x="800" d="M63 963q0 157 68 291.5t195 207.5l86 -43q-45 -38 -73.5 -89.5t-40 -119t-14.5 -117.5t-3 -130q-109 18 -218 0zM420 963q0 157 67.5 291.5t194.5 207.5l86 -43q-45 -38 -73.5 -89.5t-40 -119t-14.5 -117.5t-3 -130q-109 18 -217 0z" />
<glyph unicode="&#x201d;" horiz-adv-x="768" d="M0 977q45 38 73.5 89.5t40 119t14.5 118t3 130.5q109 -20 217 0q0 -158 -67.5 -292.5t-194.5 -207.5zM356 977q45 38 73.5 89.5t40 119t14.5 118t3 130.5q109 -20 218 0q0 -157 -68 -292t-195 -208z" />
<glyph unicode="&#x201e;" horiz-adv-x="700" d="M-68 -162q45 38 73.5 89.5t40 119t14.5 118t3 130.5q109 -18 218 0q0 -158 -68 -292t-195 -208zM289 -162q45 38 73.5 89.5t40 119t14.5 118t3 130.5q108 -18 217 0q0 -158 -67.5 -292t-194.5 -208z" />
<glyph unicode="&#x2022;" horiz-adv-x="1024" d="M94 512q0 173 122.5 295.5t295.5 122.5t295.5 -122.5t122.5 -295.5t-122.5 -295.5t-295.5 -122.5t-295.5 122.5t-122.5 295.5z" />
<glyph unicode="&#x2026;" horiz-adv-x="1959" d="M127 147q0 61 43 104.5t104 43.5q62 0 105 -43.5t43 -104.5t-43.5 -104t-104.5 -43t-104 43t-43 104zM864 147q0 61 43 104.5t105 43.5q61 0 104 -43t43 -105q0 -61 -43 -104t-104 -43t-104.5 43t-43.5 104zM1602 147q0 62 43 105t104 43t104 -43t43 -105q0 -61 -43 -104 t-104 -43t-104 43t-43 104z" />
<glyph unicode="&#x202f;" horiz-adv-x="374" />
<glyph unicode="&#x2039;" horiz-adv-x="792" d="M127 481q279 213 477 506l62 -59l-299 -447l299 -446l-62 -60q-198 294 -477 506z" />
<glyph unicode="&#x203a;" horiz-adv-x="792" d="M127 35l299 446l-299 447l63 59q192 -289 478 -506q-286 -216 -478 -506z" />
<glyph unicode="&#x205f;" horiz-adv-x="468" />
<glyph unicode="&#x20ac;" horiz-adv-x="1351" d="M96 543v86h121q-6 49 -6 100t6 102h-121v87h133q24 113 74.5 210.5t122 171.5t167.5 116t204 42q147 0 271 -78.5t187 -212.5q-82 -37 -147 -82q-16 122 -104 204.5t-207 82.5q-273 0 -320 -457l459 3q-32 -52 -49 -89h-416l-2 -100l2 -100h358q-4 -30 -8 -88h-344 q40 -480 320 -480q132 0 223.5 98.5t91.5 235.5q61 -64 143 -104q-55 -143 -180.5 -229.5t-277.5 -86.5q-146 0 -266.5 78t-195.5 204.5t-106 285.5h-133z" />
<glyph unicode="&#x2122;" horiz-adv-x="2080" d="M51 1198q0 124 37 236q58 0 172 -7.5t170 -7.5q58 0 171 7.5t171 7.5q0 -126 39 -236q-46 -13 -94 -51q4 48 4 72q0 61 -43.5 105t-104.5 44h-59l-22 -702q0 -19 14.5 -32t36.5 -13q45 0 98 16l-10 -64q-42 -4 -64 -4q-23 0 -68 7.5t-69 7.5q-22 0 -67 -7.5t-68 -7.5 q-22 0 -64 4l-10 64q50 -16 98 -16q21 0 36 13.5t14 31.5l-21 702h-61q-68 0 -118 -43t-50 -106q0 -35 10 -72q-35 33 -78 51zM874 1370l11 64q24 4 37 4t37 -7.5t36 -7.5q29 0 85 5.5t83 5.5q0 -87 31.5 -184t71 -170.5t86.5 -171t69 -171.5q20 63 58.5 137.5t76 138 t73 131.5t57.5 143t22 147q18 0 55 -5.5t56 -5.5q21 0 63.5 7.5t65.5 7.5q10 0 34 -4l9 -64q-30 16 -60 16q-13 0 -20.5 -13.5t-7.5 -31.5l-23 -675q-2 -18 8 -31.5t25 -13.5q31 0 63 16l-10 -64q-24 -4 -37 -4q-20 0 -56 7.5t-54 7.5q-19 0 -56 -7.5t-55 -7.5q-15 0 -39 4 l-10 64q32 -16 65 -16q15 0 24 13.5t9 31.5l-20 614q-20 -64 -58.5 -139.5t-76.5 -140t-74.5 -133t-59 -144.5t-22.5 -150q-62 11 -123 0q0 90 -37 187.5t-83.5 171t-101 170.5t-79.5 174l6 -610q0 -45 25 -45q24 0 51 16l-10 -64q-22 -4 -29 -4q-13 0 -35 7.5t-35 7.5 q-11 0 -33.5 -7.5t-33.5 -7.5q-13 0 -29 4l-10 64q26 -16 51 -16t25 45l6 675q0 18 -9.5 31.5t-23.5 13.5q-30 0 -64 -16z" />
<glyph unicode="&#x25fc;" horiz-adv-x="970" d="M0 0v970h970v-970h-970z" />
</font>
</defs>
</svg>
