<?xml version="1.0" standalone="no"?>
<!DOCTYPE svg PUBLIC "-//W3C//DTD SVG 20010904//EN"
 "http://www.w3.org/TR/2001/REC-SVG-20010904/DTD/svg10.dtd">
<svg version="1.0" xmlns="http://www.w3.org/2000/svg"
 width="260.000000pt" height="260.000000pt" viewBox="0 0 260.000000 260.000000"
 preserveAspectRatio="xMidYMid meet">
<metadata>
Created by potrace 1.11, written by Peter Selinger 2001-2013
</metadata>
<g transform="translate(0.000000,260.000000) scale(0.100000,-0.100000)"
fill="#000000" stroke="none">
<path d="M340 2507 l-25 -72 -70 -20 c-38 -12 -65 -24 -60 -27 6 -3 38 -14 72
-23 61 -17 63 -19 74 -59 6 -22 17 -56 23 -74 l12 -33 24 75 c23 74 23 75 66
85 23 6 55 16 71 22 27 11 27 12 -42 33 l-70 21 -22 69 c-13 38 -24 70 -26 72
-1 2 -14 -29 -27 -69z"/>
<path d="M1354 2504 l-19 -67 -75 -23 c-41 -12 -73 -23 -70 -24 3 0 37 -11 75
-23 l70 -23 19 -67 c11 -37 22 -67 25 -67 3 0 15 30 26 67 l20 67 70 23 c39
12 72 23 75 23 3 1 -29 12 -70 24 l-75 23 -19 67 c-10 36 -22 66 -26 66 -4 0
-16 -30 -26 -66z"/>
<path d="M2095 2538 c-35 -20 -2085 -2075 -2086 -2092 -2 -20 -2 -41 0 -63 1
-21 325 -349 365 -370 64 -34 21 -73 1134 1040 l1042 1042 0 44 c0 43 -2 46
-167 213 -93 93 -180 176 -195 184 -32 17 -66 18 -93 2z m132 -313 l87 -86
-234 -234 -235 -235 -82 82 c-46 46 -82 87 -80 92 3 8 445 460 454 465 2 0 42
-37 90 -84z"/>
<path d="M835 2363 c-20 -65 -41 -133 -46 -150 -10 -31 -16 -34 -112 -63 -56
-17 -124 -38 -152 -47 l-50 -16 95 -29 c52 -16 120 -37 150 -47 l55 -17 50
-152 50 -152 46 152 45 152 95 29 c52 16 121 37 153 46 l60 17 -90 28 c-49 15
-114 35 -144 44 -30 8 -60 20 -67 26 -6 6 -30 74 -54 151 -23 77 -43 141 -45
143 -1 2 -19 -50 -39 -115z"/>
<path d="M2372 1498 l-23 -76 -65 -18 c-36 -9 -67 -20 -69 -24 -2 -3 27 -16
65 -29 l69 -22 22 -72 21 -72 27 74 26 73 70 22 c38 12 65 24 60 27 -6 3 -38
14 -72 24 l-63 18 -23 76 -23 76 -22 -77z"/>
</g>
</svg>
