<?xml version="1.0" standalone="no"?>
<!DOCTYPE svg PUBLIC "-//W3C//DTD SVG 20010904//EN"
 "http://www.w3.org/TR/2001/REC-SVG-20010904/DTD/svg10.dtd">
<svg version="1.0" xmlns="http://www.w3.org/2000/svg"
 width="300.000000pt" height="300.000000pt" viewBox="0 0 300.000000 300.000000"
 preserveAspectRatio="xMidYMid meet">
<metadata>
Created by potrace 1.11, written by Peter Selinger 2001-2013
</metadata>
<g transform="translate(0.000000,300.000000) scale(0.100000,-0.100000)"
fill="#000000" stroke="none">
<path d="M545 2719 c-10 -35 -22 -69 -27 -75 -5 -7 -38 -20 -73 -29 -35 -10
-62 -21 -60 -25 2 -4 34 -15 69 -24 l66 -18 22 -76 23 -76 24 76 c24 76 24 76
67 87 23 6 55 16 71 22 27 12 27 12 -42 33 l-70 22 -20 59 c-12 33 -23 66 -26
74 -3 8 -13 -15 -24 -50z"/>
<path d="M1554 2704 l-19 -66 -70 -23 c-43 -14 -64 -25 -55 -29 8 -3 40 -14
70 -24 l55 -19 19 -66 c11 -37 23 -67 26 -67 3 0 15 30 26 67 l19 66 55 19
c30 10 62 21 70 24 9 4 -12 15 -55 29 l-70 23 -19 66 c-10 36 -22 66 -26 66
-4 0 -16 -30 -26 -66z"/>
<path d="M2285 2731 c-16 -10 -490 -480 -1052 -1043 l-1023 -1023 0 -50 0 -49
168 -169 c92 -93 180 -175 196 -184 64 -34 21 -73 1134 1040 l1042 1042 0 44
c0 44 -2 46 -167 214 -93 93 -180 175 -195 183 -37 19 -67 18 -103 -5z m-5
-626 l-235 -235 -85 85 -85 85 235 235 235 235 85 -85 85 -85 -235 -235z"/>
<path d="M1040 2578 c-17 -56 -38 -124 -46 -150 l-15 -48 -102 -30 c-151 -46
-199 -62 -195 -65 2 -1 66 -21 143 -44 77 -24 145 -48 151 -54 6 -7 28 -70 49
-142 21 -71 41 -133 45 -138 4 -4 27 59 51 140 l45 147 147 45 c81 24 144 47
140 51 -5 4 -66 24 -138 45 -71 21 -135 43 -142 49 -6 6 -30 74 -54 151 -23
77 -43 142 -45 143 -1 2 -17 -43 -34 -100z"/>
<path d="M2572 1699 l-23 -76 -62 -18 c-34 -10 -66 -21 -72 -24 -5 -3 22 -15
60 -27 l70 -21 24 -74 24 -73 26 73 26 73 70 23 70 22 -73 23 -72 24 -23 75
-23 76 -22 -76z"/>
</g>
</svg>
