<?xml version="1.0" standalone="no"?>
<!DOCTYPE svg PUBLIC "-//W3C//DTD SVG 20010904//EN"
 "http://www.w3.org/TR/2001/REC-SVG-20010904/DTD/svg10.dtd">
<svg version="1.0" xmlns="http://www.w3.org/2000/svg"
 width="300.000000pt" height="300.000000pt" viewBox="0 0 300.000000 300.000000"
 preserveAspectRatio="xMidYMid meet">
<metadata>
Created by potrace 1.11, written by Peter Selinger 2001-2013
</metadata>
<g transform="translate(0.000000,300.000000) scale(0.100000,-0.100000)"
fill="#000000" stroke="none">
<path d="M540 2714 l-25 -77 -75 -23 c-41 -12 -73 -23 -70 -24 3 0 37 -11 75
-23 l70 -22 20 -60 c12 -33 23 -67 26 -75 4 -8 16 18 30 60 l24 74 70 23 c39
12 72 22 75 23 3 1 -29 12 -70 25 l-76 25 -25 76 -24 76 -25 -78z"/>
<path d="M1556 2715 c-10 -35 -23 -69 -30 -74 -6 -5 -39 -17 -74 -26 -35 -10
-59 -21 -55 -26 4 -4 37 -16 72 -26 l64 -18 20 -68 c11 -37 23 -67 27 -67 4 0
16 30 27 67 l20 68 64 18 c35 10 68 22 72 26 4 5 -20 16 -55 26 -35 9 -68 21
-74 26 -7 5 -20 39 -30 74 -10 36 -21 65 -24 65 -3 0 -14 -29 -24 -65z"/>
<path d="M1262 1718 c-636 -636 -1040 -1046 -1049 -1067 -8 -18 -11 -45 -8
-60 4 -17 70 -91 184 -205 164 -164 181 -178 220 -183 l43 -6 1049 1049 1049
1049 0 45 c0 44 0 45 -183 227 -182 183 -183 183 -227 183 l-45 0 -1033 -1032z
m1165 700 l83 -83 -227 -227 c-125 -126 -232 -228 -238 -228 -6 0 -46 36 -90
80 l-80 80 230 230 c126 127 232 230 235 230 2 0 42 -37 87 -82z"/>
<path d="M1066 2669 c-3 -8 -24 -75 -47 -150 l-42 -136 -141 -44 c-78 -23
-144 -45 -149 -49 -4 -4 57 -26 135 -50 79 -23 146 -46 151 -50 4 -3 27 -71
51 -149 24 -78 46 -144 48 -147 3 -2 24 61 48 141 23 80 48 149 54 154 6 5 75
28 153 52 79 23 141 44 139 47 -3 2 -69 24 -147 48 -78 24 -146 47 -149 51 -4
5 -26 71 -50 148 -23 77 -44 142 -46 144 -2 2 -6 -2 -8 -10z"/>
<path d="M2569 1700 l-24 -75 -75 -24 -75 -25 76 -23 75 -23 25 -77 24 -77 23
77 24 77 77 24 76 23 -76 23 -76 23 -25 76 -25 76 -24 -75z"/>
</g>
</svg>
